<svg width="20" height="20" viewBox="0 0 20 20" fill="none" xmlns="http://www.w3.org/2000/svg">
<path d="M7.78769 4.16032C7.746 4.1349 7.71244 4.09816 7.69093 4.0544C7.66943 4.01064 7.66087 3.96168 7.66627 3.91325C7.67167 3.86482 7.69079 3.81892 7.7214 3.78094C7.75201 3.74296 7.79284 3.71446 7.83911 3.69878C8.77601 3.37557 9.7734 3.26483 10.7586 3.37461C11.7439 3.48439 12.6922 3.81194 13.5344 4.3334C13.5658 4.35205 13.5927 4.37714 13.6136 4.407C13.6345 4.43686 13.6487 4.47081 13.6554 4.50658C13.6621 4.54236 13.6611 4.57914 13.6524 4.61449C13.6437 4.64984 13.6276 4.68295 13.6051 4.71161C12.8577 5.65737 11.9453 6.46085 10.9117 7.08341C10.0753 5.91192 9.01328 4.91824 7.78769 4.16032V4.16032ZM9.99253 7.56418C9.05139 6.289 7.81684 5.25793 6.39279 4.55776C6.35074 4.53877 6.30459 4.53057 6.25856 4.53393C6.21252 4.53729 6.16806 4.5521 6.12924 4.57699C4.97702 5.40457 4.11558 6.57315 3.66727 7.91674C3.65666 7.95085 3.65331 7.98678 3.65744 8.02225C3.66156 8.05772 3.67307 8.09194 3.69123 8.12271C3.70938 8.15349 3.73378 8.18015 3.76286 8.20097C3.79194 8.2218 3.82507 8.23634 3.86011 8.24367C4.53184 8.38822 5.21706 8.46128 5.90425 8.46162C7.31634 8.46339 8.71171 8.15709 9.99253 7.56418V7.56418ZM16.6649 9.27572C16.5005 7.78883 15.8394 6.40029 14.7879 5.3334C14.7619 5.30819 14.731 5.28858 14.6971 5.27581C14.6632 5.26304 14.627 5.25738 14.5908 5.25919C14.5547 5.26099 14.5192 5.27022 14.4868 5.2863C14.4543 5.30238 14.4255 5.32496 14.4022 5.35263C13.5893 6.38711 12.5938 7.26477 11.4646 7.94238C11.8168 8.55191 12.1095 9.19374 12.3388 9.85906C13.2588 9.61098 14.2077 9.48596 15.1607 9.48726C15.5688 9.4882 15.9766 9.51174 16.3821 9.55777C16.4202 9.56181 16.4588 9.55729 16.4949 9.54455C16.5311 9.5318 16.5639 9.51115 16.591 9.48411C16.6181 9.45706 16.6389 9.42432 16.6516 9.38826C16.6644 9.3522 16.669 9.31375 16.6649 9.27572V9.27572ZM12.6216 10.8462C12.8105 11.6554 12.9054 12.4834 12.9045 13.3142C12.904 14.1078 12.8156 14.8989 12.6409 15.6732C12.6295 15.7208 12.6319 15.7707 12.648 15.8169C12.6641 15.8632 12.6931 15.9039 12.7316 15.9342C12.7701 15.9646 12.8166 15.9833 12.8654 15.9881C12.9143 15.993 12.9635 15.9838 13.0073 15.9616C13.9827 15.4751 14.8241 14.7582 15.4582 13.8734C16.0923 12.9885 16.5 11.9625 16.6456 10.8847C16.6501 10.851 16.6478 10.8167 16.6389 10.7839C16.63 10.7511 16.6146 10.7203 16.5937 10.6935C16.5728 10.6666 16.5467 10.6442 16.517 10.6275C16.4873 10.6108 16.4545 10.6002 16.4206 10.5962C16.0031 10.5393 15.5821 10.5115 15.1607 10.5129C14.3033 10.5118 13.4495 10.6239 12.6216 10.8462V10.8462ZM11.3553 10.1796C11.1516 9.57213 10.8844 8.98772 10.5582 8.43598C9.10548 9.12974 7.51496 9.48902 5.90425 9.48726C5.15018 9.48685 4.39824 9.40736 3.66084 9.25008C3.62512 9.24269 3.58824 9.24296 3.55263 9.25089C3.51703 9.25881 3.48352 9.27419 3.45434 9.29602C3.42515 9.31784 3.40096 9.34561 3.38337 9.37748C3.36577 9.40935 3.35518 9.44459 3.35229 9.48085C3.33944 9.65179 3.33301 9.82487 3.33301 10.0001C3.33268 10.9128 3.52086 11.8159 3.88581 12.653C4.25077 13.49 4.78468 14.2432 5.45428 14.8655C5.48188 14.8919 5.51517 14.9117 5.55161 14.9233C5.58805 14.9349 5.62668 14.9381 5.66452 14.9325C5.70237 14.9269 5.73844 14.9128 5.76996 14.8912C5.80149 14.8696 5.82763 14.841 5.8464 14.8078C7.10063 12.6845 9.04408 11.0517 11.3553 10.1796V10.1796ZM6.65634 15.4616C6.63919 15.491 6.62807 15.5235 6.62364 15.5573C6.61921 15.591 6.62155 15.6252 6.63052 15.6581C6.63949 15.6909 6.65492 15.7216 6.67591 15.7484C6.69689 15.7752 6.72302 15.7976 6.75276 15.8142C7.749 16.3752 8.87413 16.669 10.0182 16.6668C10.4084 16.6685 10.7979 16.6341 11.1817 16.5642C11.2262 16.5569 11.2677 16.5374 11.3017 16.508C11.3357 16.4786 11.361 16.4403 11.3746 16.3975C11.708 15.4036 11.8773 14.3623 11.876 13.3142C11.8756 12.5919 11.7958 11.8718 11.6381 11.1668C9.5325 11.9859 7.77351 13.5023 6.65634 15.4616V15.4616Z" fill="#B0B5CB"/>
</svg>
