<svg width="24" height="24" viewBox="0 0 24 24" fill="none" xmlns="http://www.w3.org/2000/svg">
<g opacity="0.5">
<path fill-rule="evenodd" clip-rule="evenodd" d="M11.5398 1.59843C11.8326 1.46719 12.1674 1.46719 12.4602 1.59843L23.3352 6.47343C23.7397 6.65475 24 7.05672 24 7.5C24 7.94328 23.7397 8.34525 23.3352 8.52657L19.5 10.2458V14.4375C19.5 15.9734 18.2841 17.061 17.0109 17.6976C15.6704 18.368 13.8972 18.75 12 18.75C11.5831 18.75 11.1738 18.7316 10.7752 18.6961C10.1564 18.6409 9.69935 18.0947 9.75443 17.4757C9.80954 16.8569 10.3559 16.3998 10.9748 16.455C11.3065 16.4846 11.6492 16.5 12 16.5C13.6236 16.5 15.0379 16.1685 16.0047 15.6852C17.0388 15.1682 17.25 14.662 17.25 14.4375V11.2544L12.4602 13.4016C12.1674 13.5328 11.8326 13.5328 11.5398 13.4016L6 10.9182V13.4125C6.44406 13.5705 6.86216 13.8259 7.21739 14.1811C7.87461 14.8383 8.25 15.7692 8.25 16.875V21.375C8.25 21.6735 8.13147 21.9596 7.92048 22.1706C7.70949 22.3815 7.42334 22.5002 7.12496 22.5L2.62495 22.4998C2.00365 22.4998 1.5 21.9961 1.5 21.3748V16.8748C1.5 15.7692 1.8754 14.8382 2.53264 14.181C2.88786 13.8258 3.30594 13.5705 3.75 13.4125V9.90958L0.664812 8.52657C0.260312 8.34525 0 7.94328 0 7.5C0 7.05672 0.260312 6.65475 0.664812 6.47343L11.5398 1.59843ZM3.87523 7.5L12 11.1421L20.1248 7.5L12 3.85786L3.87523 7.5ZM3.75 16.8748C3.75 16.2931 3.93709 15.9585 4.1236 15.772C4.3207 15.575 4.59076 15.4688 4.87498 15.4688C5.1592 15.4688 5.42927 15.575 5.62637 15.772C5.81289 15.9586 6 16.2933 6 16.875V20.25H3.75V16.8748Z" fill="white"/>
</g>
</svg>
