<svg width="97" height="51" viewBox="0 0 97 51" fill="none" xmlns="http://www.w3.org/2000/svg">
<path fill-rule="evenodd" clip-rule="evenodd" d="M77.8135 26.9632H73.2647L72.4012 30.273C71.9386 32.0676 72.7096 32.8325 74.4366 32.8325V39.7167H58.9707V32.8031H60.266C61.8542 32.8031 62.7177 32.1558 63.2265 29.9641L68.315 10.1057C68.9472 7.84033 68.2842 6.9136 66.3721 6.9136H64.4447V0.0146484H77.8135H91.1823V6.9136H89.2548C87.3428 6.9136 86.6952 7.84033 87.312 10.1057L92.4159 29.9493C92.9247 32.1558 93.7882 32.7884 95.3764 32.7884H96.6717V39.702H81.1904V32.8178C82.9174 32.8178 83.6884 32.0529 83.2258 30.2583L82.3623 26.9485H77.8135V26.9632ZM77.8135 9.12009L75.3001 19.064H77.8135H80.3269L77.8135 9.12009Z" fill="#005CA8"/>
<path fill-rule="evenodd" clip-rule="evenodd" d="M0.514648 0.015625H20.7143V6.87045H17.4608C16.3352 6.87045 15.4254 7.75305 15.4254 8.81216V30.8329C15.4254 31.9067 16.3506 32.7746 17.4608 32.7746H20.7143V39.6295H0.514648V32.7746H3.76819C4.89382 32.7746 5.80358 31.892 5.80358 30.8329V8.82687C5.80358 7.75305 4.8784 6.88516 3.76819 6.88516H0.514648V0.015625Z" fill="#005CA8"/>
<path fill-rule="evenodd" clip-rule="evenodd" d="M53.3115 19.5936C55.5319 17.5195 56.9043 14.6364 56.9043 11.4296C56.9043 5.22202 51.6925 0.16181 45.2162 0.0147108V0H35.0084H24.2764V6.85483H27.2215C28.3471 6.85483 29.2569 7.73742 29.2569 8.79654V30.8173C29.2569 31.8911 28.3317 32.759 27.2215 32.759H24.2764V32.7737C24.2764 35.0685 24.2764 37.3632 24.2764 39.6727H35.0084H45.2162C45.3242 39.6727 45.4321 39.6727 45.54 39.6727C52.1396 39.6727 57.5056 34.5683 57.5056 28.2578C57.5056 24.8009 55.8712 21.6971 53.3115 19.5936ZM38.8787 8.2964H44.1985C46.2339 8.2964 47.8838 9.87036 47.8838 11.8121C47.8838 13.7538 46.2339 15.3277 44.1985 15.3277H38.8787V8.2964ZM44.877 31.2733H38.8787V24.2567H44.877C46.9124 24.2567 48.5623 25.8306 48.5623 27.7723C48.5623 29.714 46.9124 31.2733 44.877 31.2733Z" fill="#005CA8"/>
<path fill-rule="evenodd" clip-rule="evenodd" d="M9.10337 45.9531V50.6161H7.34554L7.19134 49.7776C6.46662 50.469 5.63396 50.8221 4.69336 50.8221C3.4598 50.8221 2.45752 50.4249 1.68654 49.6305C0.915558 48.8362 0.514648 47.8212 0.514648 46.5709C0.514648 45.8942 0.622586 45.2911 0.83846 44.7174C1.05433 44.1585 1.34731 43.673 1.74822 43.2611C2.13371 42.8493 2.5963 42.5404 3.12056 42.3197C3.64483 42.0991 4.23078 41.9961 4.86298 41.9961C5.61854 41.9961 6.26617 42.1138 6.83669 42.3491C7.3918 42.5845 7.85439 42.9375 8.19362 43.3935C8.53285 43.8495 8.76414 44.4085 8.87208 45.0411H6.32784C6.09655 44.3791 5.61854 44.0555 4.8784 44.0555C4.36955 44.0555 3.96864 44.2614 3.66025 44.6586C3.35186 45.0558 3.19766 45.5853 3.19766 46.2473C3.19766 47.0269 3.36728 47.6153 3.69109 48.0419C4.0149 48.4685 4.47749 48.6744 5.07886 48.6744C5.92693 48.6744 6.42036 48.3655 6.58998 47.7624H5.44893V45.9236H9.10337V45.9531ZM25.6486 47.7183V50.6161H22.9964V42.202H27.2214C28.4396 42.202 29.3802 42.408 29.997 42.8493C30.6137 43.2759 30.9376 43.8937 30.9376 44.7027C30.9376 45.703 30.4595 46.3797 29.4727 46.7621C29.9353 46.9239 30.2437 47.1446 30.4287 47.4388C30.5983 47.7183 30.7063 48.0713 30.7371 48.4832C30.7679 48.8951 30.7988 49.2922 30.8296 49.6747C30.8605 50.0571 30.9375 50.366 31.0763 50.6161H28.3625C28.3008 50.4102 28.2391 50.013 28.2083 49.4393C28.1774 48.8656 28.0541 48.439 27.8536 48.1448C27.6532 47.8654 27.2831 47.7183 26.7434 47.7183H25.6486ZM25.6486 44.2614V45.8942H27.1289C27.869 45.8942 28.2237 45.6147 28.2237 45.0411C28.2237 44.7469 28.1466 44.5409 27.977 44.4232C27.8074 44.3203 27.5298 44.2614 27.1135 44.2614H25.6486ZM44.2447 46.3944C44.2447 45.7324 44.3526 45.1293 44.5685 44.5998C44.7844 44.0555 45.0773 43.5995 45.4628 43.217C45.8483 42.8346 46.3109 42.5404 46.866 42.3344C47.4211 42.1285 48.0379 42.0255 48.7009 42.0255C49.3948 42.0255 50.0116 42.1285 50.5667 42.3344C51.1218 42.5404 51.5844 42.8346 51.9853 43.217C52.3708 43.5995 52.6792 44.0555 52.8951 44.5998C53.111 45.144 53.2189 45.7471 53.2189 46.3944C53.2189 47.2622 53.0339 48.0272 52.6638 48.7038C52.2937 49.3805 51.7695 49.8953 51.0756 50.2631C50.3817 50.6308 49.5953 50.8221 48.7164 50.8221C47.3903 50.8221 46.3109 50.4102 45.4937 49.6011C44.6456 48.7921 44.2447 47.7183 44.2447 46.3944ZM46.8969 46.3944C46.8969 47.1004 47.0665 47.6594 47.3903 48.086C47.7141 48.5126 48.1458 48.7185 48.6855 48.7185C49.2406 48.7185 49.6724 48.5126 49.9962 48.1007C50.32 47.6888 50.4742 47.1151 50.4742 46.4091C50.4742 45.703 50.32 45.144 49.9962 44.7321C49.6724 44.3056 49.2406 44.0996 48.6855 44.0996C48.1613 44.0996 47.7295 44.3056 47.3903 44.7321C47.0665 45.144 46.8969 45.703 46.8969 46.3944ZM74.868 42.202V47.2328C74.868 49.6305 73.5265 50.8221 70.8281 50.8221C68.1297 50.8221 66.7882 49.6305 66.7882 47.2328V42.202H69.4249V47.3211C69.4249 48.2478 69.8875 48.7185 70.8281 48.7185C71.7533 48.7185 72.2313 48.2478 72.2313 47.3211V42.202H74.868ZM91.4904 48.0419V50.6161H88.8382V42.202H93.0015C93.6029 42.202 94.05 42.2462 94.3738 42.3197C94.6822 42.3933 94.9906 42.5257 95.299 42.7169C95.6691 42.9669 95.9775 43.3053 96.2088 43.7466C96.4401 44.1879 96.5634 44.6586 96.5634 45.1587C96.5634 46.056 96.2705 46.7621 95.6845 47.277C95.0986 47.7918 94.2813 48.0419 93.2482 48.0419H91.4904ZM91.4904 44.2614V46.0855H92.8165C93.1711 46.0855 93.4487 46.0119 93.6337 45.8354C93.8187 45.6736 93.9113 45.4382 93.9113 45.144C93.9113 44.8351 93.8187 44.6145 93.6491 44.4821C93.4795 44.335 93.202 44.2761 92.8319 44.2761H91.4904V44.2614Z" fill="#005CA8"/>
</svg>
