<svg width="24" height="24" viewBox="0 0 24 24" fill="none" xmlns="http://www.w3.org/2000/svg">
<g opacity="0.5" clip-path="url(#clip0_1349_2656)">
<path fill-rule="evenodd" clip-rule="evenodd" d="M15.8418 2.25001C15.8363 2.25022 15.8309 2.25234 15.8268 2.25601L4.92929 12.8565C4.87576 12.9087 4.83905 12.9757 4.82388 13.0489C4.80871 13.1221 4.81576 13.1982 4.84414 13.2674C4.87251 13.3365 4.92092 13.3956 4.98313 13.4371C5.04535 13.4785 5.11853 13.5005 5.19329 13.5H10.1253C10.3099 13.5001 10.4916 13.5455 10.6545 13.6324C10.8173 13.7192 10.9563 13.8448 11.0592 13.9981C11.162 14.1513 11.2256 14.3275 11.2443 14.5112C11.263 14.6948 11.2362 14.8802 11.1663 15.051L8.59679 21.333L19.0698 11.1435C19.1232 11.0914 19.1599 11.0246 19.1751 10.9515C19.1903 10.8784 19.1834 10.8025 19.1552 10.7334C19.127 10.6643 19.0789 10.6051 19.0169 10.5636C18.9549 10.522 18.8819 10.4999 18.8073 10.5H13.8753C13.6871 10.5 13.5019 10.4528 13.3367 10.3627C13.1714 10.2727 13.0314 10.1426 12.9295 9.98436C12.8276 9.82616 12.767 9.64491 12.7532 9.45722C12.7395 9.26953 12.773 9.08138 12.8508 8.91001L15.8628 2.28301L15.8673 2.27401C15.8665 2.26908 15.8644 2.26444 15.8613 2.26051C15.859 2.2569 15.8559 2.25384 15.8523 2.25151L15.8403 2.25001H15.8418ZM14.2563 0.645014C14.6362 0.276186 15.133 0.0515208 15.6609 0.00976833C16.1888 -0.0319841 16.7147 0.111795 17.1479 0.416305C17.5811 0.720815 17.8944 1.16696 18.0339 1.6778C18.1734 2.18863 18.1302 2.73212 17.9118 3.21451L15.6228 8.25001H18.8073C21.1623 8.25001 22.3263 11.1135 20.6373 12.756L9.62729 23.469C9.27749 23.8093 8.8088 23.9998 8.32079 24H7.86779C7.56019 24 7.25731 23.9243 6.98587 23.7796C6.71442 23.6349 6.48274 23.4257 6.31126 23.1703C6.13978 22.9149 6.03376 22.6213 6.00255 22.3153C5.97134 22.0092 6.0159 21.7002 6.13229 21.4155L8.44979 15.75H5.19329C2.83829 15.75 1.67429 12.8865 3.36329 11.244L14.2548 0.643514L14.2563 0.645014Z" fill="white"/>
</g>
<defs>
<clipPath id="clip0_1349_2656">
<rect width="24" height="24" fill="white"/>
</clipPath>
</defs>
</svg>
