<svg width="17" height="16" viewBox="0 0 17 16" fill="none" xmlns="http://www.w3.org/2000/svg">
<g opacity="0.4">
<path fill-rule="evenodd" clip-rule="evenodd" d="M11.1036 1H15.25C15.3881 1 15.5 1.11193 15.5 1.25V5.39645C15.5 5.61917 15.2307 5.73072 15.0732 5.57322L13.5303 4.03033L9.78033 7.78033C9.48744 8.07322 9.01256 8.07322 8.71967 7.78033C8.42678 7.48744 8.42678 7.01256 8.71967 6.71967L12.4697 2.96967L10.9268 1.42678C10.7693 1.26929 10.8808 1 11.1036 1ZM4.25 2C3.2835 2 2.5 2.7835 2.5 3.75V12.25C2.5 13.2165 3.2835 14 4.25 14H12.75C13.7165 14 14.5 13.2165 14.5 12.25V8.75C14.5 8.33579 14.1642 8 13.75 8C13.3358 8 13 8.33579 13 8.75V12.25C13 12.3881 12.8881 12.5 12.75 12.5H4.25C4.11193 12.5 4 12.3881 4 12.25V3.75C4 3.61193 4.11193 3.5 4.25 3.5H7.75C8.16421 3.5 8.5 3.16421 8.5 2.75C8.5 2.33579 8.16421 2 7.75 2H4.25Z" fill="white"/>
</g>
</svg>
