<svg width="20" height="20" viewBox="0 0 20 20" fill="none" xmlns="http://www.w3.org/2000/svg">
<path fill-rule="evenodd" clip-rule="evenodd" d="M10 20C15.5228 20 20 15.5228 20 10C20 4.47715 15.5228 0 10 0C4.47715 0 0 4.47715 0 10C0 15.5228 4.47715 20 10 20ZM15.7071 7.70711C16.0976 7.31658 16.0976 6.68342 15.7071 6.29289C15.3166 5.90237 14.6834 5.90237 14.2929 6.29289L8.5 12.0858L6.20711 9.79289C5.81658 9.40237 5.18342 9.40237 4.79289 9.79289C4.40237 10.1834 4.40237 10.8166 4.79289 11.2071L7.79289 14.2071C8.18342 14.5976 8.81658 14.5976 9.20711 14.2071L15.7071 7.70711Z" fill="#75FAFF"/>
</svg>
