<svg width="24" height="24" viewBox="0 0 24 24" fill="none" xmlns="http://www.w3.org/2000/svg">
<g opacity="0.5">
<path fill-rule="evenodd" clip-rule="evenodd" d="M9.62239 0.77904C11.0373 -0.25968 12.9627 -0.25968 14.3776 0.77904L15.7689 1.80045C15.9985 1.96903 16.2655 2.07963 16.5471 2.1228L18.2532 2.38437C19.9881 2.65036 21.3496 4.01184 21.6156 5.7468L21.8772 7.45287C21.9204 7.73445 22.0309 8.00143 22.1995 8.23107L23.2209 9.62239C24.2596 11.0373 24.2596 12.9627 23.2209 14.3776L22.1995 15.7689C22.0309 15.9985 21.9204 16.2655 21.8772 16.5471L21.6156 18.2532C21.3496 19.9881 19.9881 21.3496 18.2532 21.6156L16.5471 21.8772C16.2655 21.9204 15.9985 22.0309 15.7689 22.1995L14.3776 23.2209C12.9627 24.2596 11.0373 24.2596 9.62239 23.2209L8.23107 22.1995C8.00143 22.0309 7.73445 21.9204 7.45287 21.8772L5.7468 21.6156C4.01184 21.3496 2.65036 19.9881 2.38437 18.2532L2.1228 16.5471C2.07963 16.2655 1.96903 15.9985 1.80045 15.7689L0.77904 14.3776C-0.25968 12.9627 -0.25968 11.0373 0.77904 9.62239L1.80045 8.23107C1.96903 8.00143 2.07963 7.73445 2.1228 7.45287L2.38437 5.7468C2.65036 4.01184 4.01184 2.65036 5.7468 2.38437L7.45287 2.1228C7.73445 2.07963 8.00143 1.96903 8.23107 1.80045L9.62239 0.77904ZM13.0461 2.59276C12.4236 2.13574 11.5764 2.13574 10.9539 2.59276L9.56257 3.61417C9.04065 3.99733 8.43384 4.24869 7.79383 4.3468L6.08778 4.60837C5.32443 4.7254 4.7254 5.32443 4.60837 6.08778L4.3468 7.79383C4.24869 8.43384 3.99733 9.04065 3.61417 9.56257L2.59276 10.9539C2.13574 11.5764 2.13574 12.4236 2.59276 13.0461L3.61417 14.4374C3.99733 14.9593 4.24869 15.5661 4.3468 16.2061L4.60837 17.9122C4.7254 18.6756 5.32443 19.2745 6.08778 19.3915L7.79383 19.6531C8.43384 19.7512 9.04065 20.0026 9.56259 20.3859L10.9539 21.4072C11.5764 21.8643 12.4236 21.8643 13.0461 21.4072L14.4374 20.3859C14.9593 20.0026 15.5661 19.7512 16.2061 19.6531L17.9122 19.3915C18.6756 19.2745 19.2745 18.6756 19.3915 17.9122L19.6531 16.2061C19.7512 15.5661 20.0026 14.9593 20.3859 14.4374L21.4072 13.0461C21.8643 12.4236 21.8643 11.5764 21.4072 10.9539L20.3859 9.56259C20.0026 9.04065 19.7512 8.43384 19.6531 7.79383L19.3915 6.08778C19.2745 5.32443 18.6756 4.7254 17.9122 4.60837L16.2061 4.3468C15.5661 4.24869 14.9593 3.99733 14.4374 3.61417L13.0461 2.59276ZM13.5 16.5C13.5 17.3284 12.8284 18 12 18C11.1716 18 10.5 17.3284 10.5 16.5C10.5 15.6715 11.1716 15 12 15C12.8284 15 13.5 15.6715 13.5 16.5ZM10.3813 9.12811C10.5021 8.88657 10.6656 8.67925 10.8897 8.52981C11.1069 8.38506 11.4469 8.25 12.0001 8.25C12.4197 8.25 12.8294 8.37984 13.1063 8.5875C13.3532 8.77263 13.5001 9.01513 13.5001 9.375C13.5001 9.63993 13.4389 9.77071 13.3843 9.85252C13.3163 9.95458 13.1989 10.0674 12.9697 10.2202C12.8552 10.2966 12.7319 10.3708 12.5814 10.4612L12.5722 10.4667L12.5721 10.4667C12.4316 10.551 12.2656 10.6506 12.1025 10.7593C11.7692 10.9816 11.3709 11.2907 11.064 11.7512C10.7194 12.2682 10.8591 12.9666 11.3761 13.3113C11.8931 13.6559 12.5915 13.5161 12.9362 12.9991C13.0042 12.897 13.1216 12.7842 13.3507 12.6314C13.4653 12.555 13.5886 12.4808 13.7391 12.3905L13.7484 12.3849L13.7485 12.3848C13.889 12.3005 14.0549 12.201 14.2179 12.0923C14.5512 11.8701 14.9495 11.5611 15.2565 11.1006C15.5769 10.6199 15.75 10.0476 15.75 9.375C15.75 8.23486 15.2094 7.35237 14.4563 6.7875C13.7332 6.24516 12.8304 6 12.0001 6C11.0532 6 10.2683 6.23994 9.64165 6.65769C9.02208 7.07074 8.62306 7.61343 8.36883 8.12188C8.09097 8.6776 8.31622 9.35337 8.87194 9.63123C9.42768 9.90909 10.1034 9.68383 10.3813 9.12811Z" fill="#B0B5CB"/>
</g>
</svg>
