<svg width="24" height="24" viewBox="0 0 24 24" fill="none" xmlns="http://www.w3.org/2000/svg">
<path d="M11.4974 2.00291C9.89234 2.02229 6.44169 2.28604 4.51168 4.05667C3.07604 5.47918 2.57479 7.58232 2.51604 10.183C2.46729 12.7742 2.40854 17.6405 7.0992 18.9655V20.9837C7.0992 20.9837 7.06982 21.7912 7.60358 21.9568C8.26108 22.1649 8.63546 21.5437 9.26046 20.8762L10.4261 19.558C13.6355 19.8249 16.0936 19.2099 16.3768 19.1187C17.028 18.9105 20.6962 18.4418 21.2955 13.5749C21.9106 8.54858 20.9962 5.38168 19.3455 3.94917H19.3355C18.8374 3.49042 16.8355 2.03166 12.363 2.01541C12.363 2.01541 12.0311 1.99291 11.4974 2.00229V2.00291ZM11.5524 3.41605C12.008 3.41292 12.2849 3.4323 12.2849 3.4323C16.0705 3.4423 17.8774 4.58168 18.3036 4.96543C19.6937 6.15669 20.4099 9.01171 19.8855 13.208C19.3874 17.2768 16.4124 17.5343 15.8618 17.7099C15.6274 17.7849 13.4624 18.3186 10.7348 18.143C10.7348 18.143 8.70358 20.5943 8.06858 21.2255C7.96795 21.3362 7.85045 21.3687 7.77545 21.3524C7.66795 21.3262 7.63545 21.193 7.6417 21.0105L7.66108 17.6611C3.68292 16.5611 3.9173 12.4105 3.9598 10.2423C4.00855 8.0742 4.41543 6.30044 5.62669 5.09918C7.25732 3.6248 10.1873 3.42605 11.5511 3.41605H11.5524ZM11.8524 5.58356C11.8196 5.58323 11.7871 5.58938 11.7568 5.60167C11.7264 5.61395 11.6988 5.63212 11.6755 5.65512C11.6522 5.67813 11.6337 5.70552 11.621 5.73572C11.6084 5.76591 11.6018 5.79832 11.6017 5.83106C11.6017 5.97106 11.7155 6.08169 11.8524 6.08169C12.472 6.0699 13.0879 6.18092 13.6645 6.40833C14.2411 6.63575 14.767 6.97506 15.2118 7.4067C16.1199 8.28858 16.5624 9.47359 16.5793 11.023C16.5793 11.1598 16.6899 11.2736 16.8299 11.2736V11.2636C16.8959 11.2638 16.9592 11.2378 17.0062 11.1915C17.0531 11.1451 17.0799 11.0821 17.0805 11.0161C17.1109 10.2868 16.9926 9.55897 16.7329 8.87681C16.4732 8.19465 16.0775 7.57242 15.5699 7.04795C14.5805 6.08106 13.3267 5.58293 11.8524 5.58293V5.58356ZM8.55796 6.15669C8.38105 6.13084 8.20062 6.16635 8.0467 6.25731H8.03358C7.67624 6.46678 7.35433 6.73152 7.07982 7.0417C6.8517 7.30545 6.72794 7.57232 6.69544 7.8292C6.67607 7.98233 6.68919 8.13545 6.73482 8.2817L6.75107 8.2917C7.00795 9.04671 7.34358 9.77296 7.75358 10.4567C8.28172 11.4173 8.93168 12.3057 9.68734 13.0999L9.70984 13.1324L9.74547 13.1586L9.76797 13.1849L9.79422 13.2074C10.5912 13.9652 11.4818 14.6182 12.4442 15.1505C13.5442 15.7493 14.2117 16.0324 14.6124 16.1499V16.1561C14.7299 16.1918 14.8368 16.208 14.9443 16.208C15.2857 16.183 15.6089 16.0444 15.8624 15.8143C16.1712 15.5397 16.4329 15.2164 16.6374 14.8574V14.8511C16.8293 14.4899 16.7643 14.148 16.4874 13.9167C15.9329 13.4321 15.3333 13.0015 14.6967 12.6311C14.2705 12.3999 13.8374 12.5399 13.6617 12.7742L13.2874 13.2461C13.0955 13.4805 12.7467 13.448 12.7467 13.448L12.7367 13.4542C10.1361 12.7899 9.44234 10.1567 9.44234 10.1567C9.44234 10.1567 9.40984 9.79859 9.65047 9.61609L10.1192 9.23859C10.3436 9.05608 10.4998 8.62358 10.2592 8.1967C9.89134 7.55929 9.46178 6.95954 8.97671 6.40607C8.87067 6.27558 8.7219 6.18681 8.55671 6.15544L8.55796 6.15669ZM12.2849 6.89919C11.953 6.89919 11.953 7.40045 12.288 7.40045C12.7007 7.40714 13.108 7.4951 13.4866 7.65928C13.8653 7.82347 14.2079 8.06067 14.4949 8.35733C14.7566 8.64609 14.9578 8.98445 15.0864 9.35236C15.215 9.72028 15.2685 10.1103 15.2436 10.4992C15.2448 10.565 15.2716 10.6278 15.3185 10.6741C15.3653 10.7203 15.4284 10.7464 15.4943 10.7467L15.5043 10.7598C15.5706 10.7594 15.634 10.7328 15.6809 10.6859C15.7278 10.639 15.7544 10.5755 15.7549 10.5092C15.7774 9.51609 15.4686 8.68296 14.863 8.01545C14.2542 7.34795 13.4049 6.97357 12.3205 6.89919H12.2849ZM12.6955 8.2467C12.3536 8.2367 12.3405 8.74796 12.6792 8.75796C13.503 8.80046 13.903 9.21671 13.9555 10.073C13.9566 10.138 13.9832 10.1999 14.0294 10.2456C14.0757 10.2913 14.138 10.317 14.203 10.3173H14.213C14.2464 10.3159 14.2792 10.3078 14.3095 10.2936C14.3397 10.2793 14.3669 10.2592 14.3893 10.2344C14.4117 10.2095 14.4289 10.1805 14.4399 10.1489C14.451 10.1173 14.4556 10.0839 14.4536 10.0505C14.3949 8.93421 13.7861 8.30545 12.7055 8.24733H12.6955V8.2467Z" fill="#675FA7"/>
</svg>
