<svg width="24" height="24" viewBox="0 0 24 24" fill="none" xmlns="http://www.w3.org/2000/svg">
<path d="M11.4983 2.00291C9.89332 2.02229 6.44267 2.28604 4.51266 4.05667C3.07702 5.47918 2.57577 7.58232 2.51702 10.183C2.46827 12.7742 2.40952 17.6405 7.10017 18.9655V20.9837C7.10017 20.9837 7.0708 21.7912 7.60455 21.9568C8.26206 22.1649 8.63644 21.5437 9.26144 20.8762L10.4271 19.558C13.6365 19.8249 16.0946 19.2099 16.3777 19.1187C17.029 18.9105 20.6971 18.4418 21.2965 13.5749C21.9115 8.54858 20.9971 5.38168 19.3465 3.94917H19.3365C18.8384 3.49042 16.8365 2.03166 12.364 2.01541C12.364 2.01541 12.0321 1.99291 11.4983 2.00229V2.00291ZM11.5533 3.41605C12.009 3.41292 12.2858 3.4323 12.2858 3.4323C16.0715 3.4423 17.8784 4.58168 18.3046 4.96543C19.6946 6.15669 20.4109 9.01171 19.8865 13.208C19.3884 17.2768 16.4134 17.5343 15.8627 17.7099C15.6284 17.7849 13.4633 18.3186 10.7358 18.143C10.7358 18.143 8.70456 20.5943 8.06956 21.2255C7.96893 21.3362 7.85143 21.3687 7.77643 21.3524C7.66893 21.3262 7.63643 21.193 7.64268 21.0105L7.66205 17.6611C3.6839 16.5611 3.91828 12.4105 3.96078 10.2423C4.00953 8.0742 4.41641 6.30044 5.62766 5.09918C7.2583 3.6248 10.1883 3.42605 11.5521 3.41605H11.5533ZM11.8533 5.58356C11.8206 5.58323 11.7881 5.58938 11.7578 5.60167C11.7274 5.61395 11.6998 5.63212 11.6765 5.65513C11.6532 5.67813 11.6347 5.70552 11.622 5.73572C11.6093 5.76591 11.6028 5.79832 11.6027 5.83106C11.6027 5.97106 11.7165 6.08169 11.8533 6.08169C12.473 6.0699 13.0889 6.18092 13.6655 6.40833C14.2421 6.63575 14.7679 6.97506 15.2127 7.4067C16.1209 8.28858 16.5634 9.47359 16.5802 11.023C16.5802 11.1598 16.6909 11.2736 16.8309 11.2736V11.2636C16.8968 11.2638 16.9602 11.2378 17.0072 11.1915C17.0541 11.1451 17.0808 11.0821 17.0815 11.0161C17.1118 10.2868 16.9936 9.55897 16.7339 8.87681C16.4742 8.19465 16.0785 7.57242 15.5709 7.04795C14.5815 6.08106 13.3277 5.58293 11.8533 5.58293V5.58356ZM8.55893 6.15669C8.38203 6.13084 8.2016 6.16635 8.04768 6.25731H8.03456C7.67722 6.46678 7.35531 6.73152 7.0808 7.0417C6.85267 7.30545 6.72892 7.57232 6.69642 7.8292C6.67705 7.98233 6.69017 8.13545 6.7358 8.2817L6.75205 8.2917C7.00892 9.04671 7.34455 9.77296 7.75455 10.4567C8.2827 11.4173 8.93266 12.3057 9.68832 13.0999L9.71082 13.1324L9.74644 13.1586L9.76894 13.1849L9.79519 13.2074C10.5922 13.9652 11.4828 14.6182 12.4452 15.1505C13.5452 15.7493 14.2127 16.0324 14.6134 16.1499V16.1561C14.7309 16.1918 14.8377 16.208 14.9452 16.208C15.2867 16.183 15.6099 16.0444 15.8634 15.8143C16.1721 15.5397 16.4339 15.2164 16.6384 14.8574V14.8511C16.8302 14.4899 16.7652 14.148 16.4884 13.9167C15.9339 13.4321 15.3343 13.0015 14.6977 12.6311C14.2715 12.3999 13.8383 12.5399 13.6627 12.7742L13.2883 13.2461C13.0965 13.4805 12.7477 13.448 12.7477 13.448L12.7377 13.4542C10.1371 12.7899 9.44332 10.1567 9.44332 10.1567C9.44332 10.1567 9.41082 9.79859 9.65144 9.61609L10.1202 9.23859C10.3446 9.05608 10.5008 8.62358 10.2602 8.1967C9.89232 7.55929 9.46276 6.95954 8.97769 6.40607C8.87164 6.27558 8.72287 6.18681 8.55768 6.15544L8.55893 6.15669ZM12.2858 6.89919C11.954 6.89919 11.954 7.40045 12.289 7.40045C12.7016 7.40714 13.109 7.4951 13.4876 7.65928C13.8663 7.82347 14.2089 8.06067 14.4959 8.35733C14.7576 8.64609 14.9588 8.98445 15.0874 9.35236C15.216 9.72028 15.2695 10.1103 15.2446 10.4992C15.2457 10.565 15.2726 10.6278 15.3195 10.6741C15.3663 10.7203 15.4294 10.7464 15.4952 10.7467L15.5052 10.7598C15.5716 10.7594 15.635 10.7328 15.6819 10.6859C15.7288 10.639 15.7554 10.5755 15.7559 10.5092C15.7784 9.51609 15.4696 8.68296 14.864 8.01545C14.2552 7.34795 13.4058 6.97357 12.3215 6.89919H12.2858V6.89919ZM12.6965 8.2467C12.3546 8.2367 12.3415 8.74796 12.6802 8.75796C13.504 8.80046 13.904 9.21671 13.9565 10.073C13.9576 10.138 13.9842 10.1999 14.0304 10.2456C14.0767 10.2913 14.139 10.317 14.204 10.3173H14.214C14.2474 10.3159 14.2802 10.3078 14.3105 10.2936C14.3407 10.2793 14.3679 10.2592 14.3903 10.2344C14.4127 10.2095 14.4299 10.1805 14.4409 10.1489C14.452 10.1173 14.4566 10.0839 14.4546 10.0505C14.3958 8.93421 13.7871 8.30545 12.7065 8.24733H12.6965V8.2467Z" fill="white" fill-opacity="0.3"/>
</svg>
