<svg width="24" height="24" viewBox="0 0 24 24" fill="none" xmlns="http://www.w3.org/2000/svg">
<path d="M19.6527 7.16237C16.9596 2.99986 11.4614 1.76236 7.19744 4.34986C3.0457 6.93737 1.6992 12.5624 4.39221 16.7249L4.61663 17.0624L3.71896 20.4374L7.08523 19.5374L7.42186 19.7624C8.88058 20.5499 10.4515 20.9999 12.0224 20.9999C13.7056 20.9999 15.3887 20.5499 16.8474 19.6499C20.9992 16.9499 22.2335 11.4374 19.6527 7.16237ZM17.2963 15.8249C16.8474 16.4999 16.2864 16.9499 15.5009 17.0624C15.0521 17.0624 14.491 17.2874 12.2469 16.3874C10.3393 15.4874 8.76837 14.0249 7.64628 12.3374C6.97302 11.5499 6.6364 10.5374 6.52419 9.52487C6.52419 8.62487 6.86081 7.83737 7.42186 7.27487C7.64628 7.04987 7.8707 6.93737 8.09511 6.93737H8.65616C8.88058 6.93737 9.105 6.93737 9.21721 7.38737C9.44162 7.94987 10.0027 9.29987 10.0027 9.41237C10.1149 9.52487 10.1149 9.74987 10.0027 9.86237C10.1149 10.0874 10.0027 10.3124 9.89046 10.4249C9.77825 10.5374 9.66604 10.7624 9.55383 10.8749C9.32942 10.9874 9.21721 11.2124 9.32941 11.4374C9.77825 12.1124 10.3393 12.7874 10.9003 13.3499C11.5736 13.9124 12.2469 14.3624 13.0323 14.6999C13.2567 14.8124 13.4812 14.8124 13.5934 14.5874C13.7056 14.3624 14.2666 13.7999 14.491 13.5749C14.7155 13.3499 14.8277 13.3499 15.0521 13.4624L16.8474 14.3624C17.0718 14.4749 17.2963 14.5874 17.4085 14.6999C17.5207 15.0374 17.5207 15.4874 17.2963 15.8249Z" fill="#1ACA36"/>
</svg>
