<svg width="24" height="24" viewBox="0 0 24 24" fill="none" xmlns="http://www.w3.org/2000/svg">
<path fill-rule="evenodd" clip-rule="evenodd" d="M5.83998 9.85641C7.6273 13.7483 10.8078 16.8425 14.7615 18.5191L14.774 18.5244L15.5378 18.8648C16.5105 19.2982 17.6537 18.9904 18.2773 18.1273L19.5517 16.3636C19.6295 16.2558 19.6095 16.106 19.506 16.0226L17.2813 14.2278C17.1707 14.1385 17.008 14.1593 16.9234 14.2735L16.0576 15.4419C15.8473 15.7256 15.4675 15.8242 15.1458 15.6786C12.1894 14.3407 9.81367 11.965 8.47574 9.00857C8.33012 8.68681 8.42872 8.30705 8.71247 8.09677L9.88085 7.23091C9.99502 7.14631 10.0158 6.98368 9.92657 6.87308L8.13153 4.64804C8.0481 4.54462 7.89836 4.52454 7.79063 4.60231L6.01733 5.88247C5.14854 6.50966 4.84259 7.6625 5.28605 8.63795L5.83939 9.85511C5.83959 9.85555 5.83979 9.85598 5.83998 9.85641ZM14.1696 19.8974C9.87362 18.0738 6.41825 14.7108 4.47621 10.481L4.47504 10.4785L3.92054 9.25874C3.18144 7.63299 3.69136 5.71158 5.13935 4.66627L6.91264 3.38611C7.66676 2.8417 8.71499 2.98231 9.29898 3.7062L11.094 5.93125C11.7186 6.70542 11.5731 7.84381 10.774 8.43605L10.1045 8.93221C11.2354 11.1266 13.0277 12.919 15.2221 14.0499L15.7183 13.3804C16.3105 12.5812 17.4489 12.4358 18.2231 13.0603L20.4478 14.8551C21.172 15.4393 21.3124 16.4879 20.7675 17.242L19.4931 19.0058C18.4538 20.4443 16.5484 20.9572 14.9274 20.235L14.1696 19.8974Z" fill="#B0B5CB"/>
</svg>
