<svg width="24" height="24" viewBox="0 0 24 24" fill="none" xmlns="http://www.w3.org/2000/svg">
<path d="M19.6536 7.16237C16.9606 2.99986 11.4624 1.76236 7.19842 4.34986C3.04668 6.93737 1.70017 12.5624 4.39319 16.7249L4.61761 17.0624L3.71994 20.4374L7.08621 19.5374L7.42284 19.7624C8.88156 20.5499 10.4525 20.9999 12.0234 20.9999C13.7065 20.9999 15.3897 20.5499 16.8484 19.6499C21.0001 16.9499 22.2344 11.4374 19.6536 7.16237V7.16237ZM17.2972 15.8249C16.8484 16.4999 16.2874 16.9499 15.5019 17.0624C15.0531 17.0624 14.492 17.2874 12.2478 16.3874C10.3403 15.4874 8.76935 14.0249 7.64725 12.3374C6.974 11.5499 6.63737 10.5374 6.52516 9.52487C6.52516 8.62487 6.86179 7.83737 7.42284 7.27487C7.64726 7.04987 7.87167 6.93737 8.09609 6.93737H8.65714C8.88156 6.93737 9.10597 6.93737 9.21818 7.38737C9.4426 7.94987 10.0036 9.29987 10.0036 9.41237C10.1159 9.52487 10.1159 9.74987 10.0036 9.86237C10.1159 10.0874 10.0036 10.3124 9.89144 10.4249C9.77923 10.5374 9.66702 10.7624 9.55481 10.8749C9.33039 10.9874 9.21818 11.2124 9.33039 11.4374C9.77923 12.1124 10.3403 12.7874 10.9013 13.3499C11.5746 13.9124 12.2478 14.3624 13.0333 14.6999C13.2577 14.8124 13.4821 14.8124 13.5943 14.5874C13.7065 14.3624 14.2676 13.7999 14.492 13.5749C14.7164 13.3499 14.8286 13.3499 15.0531 13.4624L16.8484 14.3624C17.0728 14.4749 17.2972 14.5874 17.4094 14.6999C17.5217 15.0374 17.5217 15.4874 17.2972 15.8249V15.8249Z" fill="white" fill-opacity="0.3"/>
</svg>
