<svg width="24" height="24" viewBox="0 0 24 24" fill="none" xmlns="http://www.w3.org/2000/svg">
<path d="M22.0208 8.02083C22.0208 8.02083 21.8233 6.64843 21.2151 6.04582C20.4449 5.25271 19.5839 5.24882 19.1889 5.20217C16.3609 5 12.1151 5 12.1151 5H12.1072C12.1072 5 7.86129 5 5.03333 5.20217C4.63837 5.24882 3.77734 5.25271 3.00716 6.04582C2.39892 6.64843 2.20538 8.02083 2.20538 8.02083C2.20538 8.02083 2 9.63427 2 11.2438V12.7523C2 14.3618 2.20143 15.9753 2.20143 15.9753C2.20143 15.9753 2.39891 17.3477 3.00321 17.9503C3.77339 18.7434 4.78451 18.7162 5.23477 18.8017C6.85412 18.9533 12.1111 19 12.1111 19C12.1111 19 16.3609 18.9922 19.1889 18.7939C19.5839 18.7473 20.4449 18.7434 21.2151 17.9503C21.8233 17.3477 22.0208 15.9753 22.0208 15.9753C22.0208 15.9753 22.2222 14.3657 22.2222 12.7523V11.2438C22.2222 9.63427 22.0208 8.02083 22.0208 8.02083ZM10.0217 14.5834V8.98889L15.4841 11.7959L10.0217 14.5834Z" fill="white" fill-opacity="0.3"/>
</svg>
