<svg width="20" height="20" viewBox="0 0 20 20" fill="none" xmlns="http://www.w3.org/2000/svg">
<path d="M17.3727 4.88621H12.7993V5.93192H17.3727V4.88621ZM15.1175 8.47682C14.879 8.46291 14.6401 8.49505 14.4153 8.57126C14.1905 8.64748 13.9847 8.76616 13.8104 8.92003C13.6361 9.0739 13.497 9.2597 13.4017 9.46602C13.3064 9.67235 13.2569 9.89484 13.2562 10.1198H16.908C16.9215 9.89635 16.8838 9.67274 16.7976 9.46414C16.7113 9.25555 16.5785 9.06684 16.4081 8.91078C16.2377 8.75473 16.0337 8.63497 15.8099 8.55962C15.5861 8.48426 15.3477 8.45506 15.1109 8.474L15.1169 8.47344L15.1175 8.47682ZM15.2612 13.4076C15.648 13.4062 16.0279 13.311 16.3643 13.1312L16.3529 13.1368C16.5109 13.064 16.6521 12.9625 16.7683 12.8381C16.8846 12.7137 16.9736 12.5689 17.0302 12.4121L17.0332 12.403H19.0106C18.5902 13.9079 17.159 14.9998 15.4564 14.9998C15.3624 14.9998 15.269 14.9965 15.1768 14.9897L15.1893 14.9902C14.6269 15.0167 14.0649 14.9313 13.5398 14.7396C13.0148 14.548 12.5384 14.2544 12.1418 13.878C11.409 13.0699 11.0073 12.0416 11.0093 10.9789C11.0093 9.85193 11.4519 8.82201 12.1825 8.03519L12.1777 8.04026C12.5646 7.65651 13.0338 7.35473 13.5541 7.15497C14.0744 6.95522 14.6338 6.86208 15.1953 6.88175H15.1881C15.9578 6.8637 16.7149 7.06737 17.3584 7.46552L17.344 7.45706C17.9363 7.82279 18.4076 8.33798 18.704 8.94384L18.7136 8.96584C19.0143 9.60082 19.1686 10.2887 19.1663 10.9839L19.1657 11.0595V11.0556C19.1657 11.1511 19.1597 11.2833 19.1478 11.4521H13.2556C13.218 11.9798 13.4031 12.5001 13.7706 12.9L13.7682 12.8971C13.966 13.0758 14.2014 13.2131 14.4593 13.3003C14.7171 13.3875 14.9916 13.4225 15.2648 13.4031L15.2582 13.4036L15.2612 13.4076ZM3.31286 12.9834H5.96159C7.18485 12.9834 7.79648 12.5145 7.79648 11.5767C7.79648 10.5652 7.20282 10.0595 6.01549 10.0595H3.31286V12.9834ZM3.31286 8.45708H5.82805C6.22525 8.47827 6.61787 8.36837 6.93832 8.1463L6.93353 8.14969C7.07638 8.03025 7.18752 7.88094 7.25803 7.71373C7.32854 7.54653 7.35646 7.36609 7.33955 7.18689L7.34015 7.1914C7.34015 6.3822 6.77344 5.97742 5.64001 5.97704H3.31286V8.45708ZM0.833607 4.16707H6.15143L6.22688 4.1665C6.69099 4.1665 7.14433 4.20937 7.58269 4.29172L7.53837 4.28495C7.94316 4.36177 8.33193 4.50028 8.68937 4.695L8.67081 4.68598C9.01934 4.87662 9.29541 5.15412 9.46968 5.4869L9.47507 5.49818C9.67694 5.90541 9.7734 6.35194 9.75653 6.80109V6.79658L9.75772 6.87047C9.75785 7.32906 9.61295 7.7773 9.34151 8.15802C9.07007 8.53874 8.68438 8.8347 8.23364 9.00814L8.21747 9.01378C8.83317 9.15452 9.37645 9.49524 9.75174 9.97602L9.75713 9.98279C10.1189 10.4914 10.3004 11.0947 10.2757 11.7065V11.7014V11.742C10.2761 12.129 10.1991 12.5127 10.0488 12.8729L10.0566 12.852C9.92366 13.1776 9.72242 13.4745 9.46489 13.7251L9.46548 13.7246C9.21397 13.9615 8.92352 14.1611 8.60373 14.3145L8.58457 14.323C8.2511 14.4841 7.89592 14.6017 7.52879 14.6727L7.50124 14.6772C7.11583 14.7502 6.72361 14.7865 6.33048 14.7855H0.833008L0.833607 4.16707Z" fill="#B0B5CB"/>
</svg>
