<svg width="24" height="24" viewBox="0 0 24 24" fill="none" xmlns="http://www.w3.org/2000/svg">
<g opacity="0.5">
<path fill-rule="evenodd" clip-rule="evenodd" d="M2.25 12C2.25 9.41413 3.27723 6.93419 5.10571 5.10571C6.93419 3.27723 9.41413 2.25 12 2.25C14.5859 2.25 17.0658 3.27723 18.8943 5.10571C20.7228 6.93419 21.75 9.41413 21.75 12C21.75 14.5859 20.7228 17.0658 18.8943 18.8943C17.0658 20.7228 14.5859 21.75 12 21.75C9.41413 21.75 6.93419 20.7228 5.10571 18.8943C3.27723 17.0658 2.25 14.5859 2.25 12ZM12 0C8.8174 0 5.76516 1.26428 3.51472 3.51472C1.26428 5.76516 0 8.8174 0 12C0 15.1826 1.26428 18.2349 3.51472 20.4854C5.76516 22.7357 8.8174 24 12 24C15.1826 24 18.2349 22.7357 20.4854 20.4854C22.7357 18.2349 24 15.1826 24 12C24 8.8174 22.7357 5.76516 20.4854 3.51472C18.2349 1.26428 15.1826 0 12 0ZM12.75 7.125C12.75 6.82663 12.6315 6.54048 12.4205 6.3295C12.2095 6.11853 11.9234 6 11.625 6C11.3266 6 11.0405 6.11853 10.8295 6.3295C10.6185 6.54048 10.5 6.82663 10.5 7.125V12.375C10.5 12.5997 10.5674 12.8192 10.6933 13.0053C10.8192 13.1913 10.998 13.3354 11.2065 13.419L14.9565 14.919C15.2311 15.0194 15.5341 15.0087 15.8011 14.8895C16.0681 14.7703 16.2783 14.5517 16.3869 14.2802C16.4955 14.0087 16.4942 13.7056 16.3832 13.435C16.2722 13.1645 16.06 12.9479 15.792 12.831L12.75 11.613V7.125Z" fill="white"/>
</g>
</svg>
