<svg width="20" height="20" viewBox="0 0 20 20" fill="none" xmlns="http://www.w3.org/2000/svg">
<path d="M9.99788 7.77699C8.77374 7.77699 7.77476 8.776 7.77476 10.0002C7.77476 11.2243 8.77374 12.2233 9.99788 12.2233C11.222 12.2233 12.221 11.2243 12.221 10.0002C12.221 8.776 11.222 7.77699 9.99788 7.77699ZM16.6656 10.0002C16.6656 9.07954 16.6739 8.16726 16.6222 7.2483C16.5705 6.18092 16.327 5.23361 15.5465 4.45308C14.7643 3.67089 13.8187 3.42906 12.7514 3.37735C11.8308 3.32565 10.9185 3.33399 9.99955 3.33399C9.07894 3.33399 8.16668 3.32565 7.24774 3.37735C6.18037 3.42906 5.23309 3.67255 4.45257 4.45308C3.67039 5.23528 3.42857 6.18092 3.37687 7.2483C3.32517 8.16893 3.3335 9.08121 3.3335 10.0002C3.3335 10.9191 3.32517 11.8331 3.37687 12.752C3.42857 13.8194 3.67206 14.7667 4.45257 15.5472C5.23475 16.3294 6.18037 16.5713 7.24774 16.623C8.16835 16.6747 9.08061 16.6663 9.99955 16.6663C10.9202 16.6663 11.8324 16.6747 12.7514 16.623C13.8187 16.5713 14.766 16.3278 15.5465 15.5472C16.3287 14.765 16.5705 13.8194 16.6222 12.752C16.6756 11.8331 16.6656 10.9208 16.6656 10.0002V10.0002ZM9.99788 13.4208C8.10497 13.4208 6.5773 11.8931 6.5773 10.0002C6.5773 8.10722 8.10497 6.57952 9.99788 6.57952C11.8908 6.57952 13.4185 8.10722 13.4185 10.0002C13.4185 11.8931 11.8908 13.4208 9.99788 13.4208ZM13.5586 7.2383C13.1166 7.2383 12.7597 6.88139 12.7597 6.43942C12.7597 5.99746 13.1166 5.64055 13.5586 5.64055C14.0005 5.64055 14.3574 5.99746 14.3574 6.43942C14.3575 6.54437 14.337 6.64831 14.2969 6.74529C14.2568 6.84228 14.1979 6.9304 14.1237 7.00461C14.0495 7.07881 13.9614 7.13765 13.8644 7.17775C13.7674 7.21785 13.6635 7.23843 13.5586 7.2383V7.2383Z" fill="#B0B5CB"/>
</svg>
