<svg width="24" height="24" viewBox="0 0 24 24" fill="none" xmlns="http://www.w3.org/2000/svg">
<path fill-rule="evenodd" clip-rule="evenodd" d="M15.9054 1.5H22.125C22.3321 1.5 22.5 1.66789 22.5 1.875V8.09468C22.5 8.42876 22.0961 8.59608 21.8598 8.35983L19.5455 6.0455L13.9205 11.6705C13.4812 12.1098 12.7688 12.1098 12.3295 11.6705C11.8902 11.2312 11.8902 10.5188 12.3295 10.0795L17.9545 4.4545L15.6402 2.14017C15.4039 1.90393 15.5712 1.5 15.9054 1.5ZM5.625 3C4.17525 3 3 4.17525 3 5.625V18.375C3 19.8248 4.17525 21 5.625 21H18.375C19.8248 21 21 19.8248 21 18.375V13.125C21 12.5037 20.4963 12 19.875 12C19.2537 12 18.75 12.5037 18.75 13.125V18.375C18.75 18.5821 18.5822 18.75 18.375 18.75H5.625C5.4179 18.75 5.25 18.5821 5.25 18.375V5.625C5.25 5.4179 5.4179 5.25 5.625 5.25H10.875C11.4963 5.25 12 4.74632 12 4.125C12 3.50368 11.4963 3 10.875 3H5.625Z" fill="#289EF3"/>
</svg>
