<svg width="155" height="32" viewBox="0 0 155 32" fill="none" xmlns="http://www.w3.org/2000/svg">
<path d="M0.699219 11.2969C0.699219 13.7109 1.45312 15.4883 2.96094 16.6289C4.47656 17.7695 6.38281 18.3398 8.67969 18.3398C10.9688 18.3398 12.8477 17.7656 14.3164 16.6172C15.793 15.4688 16.5312 13.6953 16.5312 11.2969V0.9375H12.8164V11.4844C12.8164 12.8984 12.4531 13.9258 11.7266 14.5664C11 15.1992 9.98828 15.5156 8.69141 15.5156C7.37891 15.5156 6.34766 15.1992 5.59766 14.5664C4.84766 13.9258 4.47266 12.8984 4.47266 11.4844V0.9375H0.699219V11.2969ZM17.1533 18H21.1025L26.7627 10.3242L27.4541 10.2891L34.3681 0.9375H30.4892L25.2158 8.32031L24.5361 8.34375L17.1533 18ZM17.3525 0.9375L24.4892 10.3594L24.5947 10.3828L30.2783 18H34.8369L27.3603 8.28516L27.2314 8.25L21.8642 0.9375H17.3525ZM41.1669 18H42.7958V4.57031C42.7958 4.35156 42.788 4.11328 42.7723 3.85547C42.7567 3.58984 42.7372 3.35156 42.7137 3.14062H42.7958C42.8505 3.35156 42.9247 3.58984 43.0184 3.85547C43.12 4.11328 43.2216 4.35156 43.3231 4.57031L49.6864 18H51.2684L57.6434 4.54688C57.7372 4.34375 57.8309 4.11328 57.9247 3.85547C58.0262 3.58984 58.1044 3.35156 58.1591 3.14062H58.2294C58.2137 3.35156 58.1981 3.58594 58.1825 3.84375C58.1747 4.10156 58.1708 4.33594 58.1708 4.54688L58.1591 18H59.8583V0.9375H57.6786L51.0809 14.8008C50.9716 15.0273 50.87 15.25 50.7762 15.4688C50.6903 15.6875 50.6122 15.8789 50.5419 16.043H50.4716C50.4012 15.8789 50.3153 15.6875 50.2137 15.4688C50.12 15.25 50.0184 15.0273 49.9091 14.8008L43.3348 0.9375H41.1669V18ZM63.1756 18H64.8983V0.9375H63.1756V18ZM68.2156 18H69.8914V4.72266C69.8914 4.51953 69.8836 4.28516 69.868 4.01953C69.8602 3.74609 69.8445 3.50781 69.8211 3.30469H69.9031C69.9812 3.46094 70.0906 3.64844 70.2312 3.86719C70.3797 4.08594 70.5359 4.30469 70.7 4.52344L80.5789 18H82.4422V0.9375H80.7664V14.2734C80.7664 14.4844 80.7703 14.707 80.7781 14.9414C80.7859 15.1758 80.8016 15.3984 80.825 15.6094H80.743C80.6492 15.4453 80.5359 15.2578 80.4031 15.0469C80.2703 14.8359 80.1258 14.625 79.9695 14.4141L70.0906 0.9375H68.2156V18ZM85.7009 18H91.3962C93.7947 18 95.7712 17.2891 97.3259 15.8672C98.8884 14.4453 99.6697 12.4102 99.6697 9.76172V9.15234C99.6697 6.50391 98.8923 4.47266 97.3377 3.05859C95.783 1.64453 93.8025 0.9375 91.3962 0.9375H85.7009V18ZM87.4353 16.5586V2.37891H91.3962C93.3728 2.38672 94.9509 2.96094 96.1306 4.10156C97.3181 5.23438 97.9119 6.91797 97.9119 9.15234V9.76172C97.9119 12.0039 97.3181 13.6992 96.1306 14.8477C94.9509 15.9883 93.3728 16.5586 91.3962 16.5586H87.4353Z" fill="white"/>
<path d="M0.81543 30H8.77441V24.7412H7.94434V29.3213H5.20996V24.7412H4.37988V29.3213H1.64551V24.7412H0.81543V30ZM14.2873 30H15.4152L12.2463 27.0654L11.675 27.5732L14.2873 30ZM10.6154 26.9922V27.6709H12.051L15.049 24.7412H14.048L11.7775 26.9922H10.6154ZM11.0354 24.7412H10.2004V30H11.0354V24.7412ZM15.6938 27.4463C15.6938 28.2406 15.959 28.89 16.4896 29.3945C17.0202 29.8958 17.7299 30.1465 18.6186 30.1465C19.5072 30.1465 20.2169 29.8958 20.7475 29.3945C21.2813 28.89 21.5482 28.2406 21.5482 27.4463V27.29C21.5482 26.499 21.2813 25.8529 20.7475 25.3516C20.2169 24.847 19.5072 24.5947 18.6186 24.5947C17.7299 24.5947 17.0202 24.847 16.4896 25.3516C15.959 25.8529 15.6938 26.499 15.6938 27.29V27.4463ZM16.5434 27.29C16.5434 26.7236 16.7175 26.25 17.0658 25.8691C17.4174 25.4883 17.935 25.2979 18.6186 25.2979C19.3021 25.2979 19.8181 25.4883 20.1664 25.8691C20.518 26.25 20.6938 26.7236 20.6938 27.29V27.4463C20.6938 28.016 20.518 28.4912 20.1664 28.8721C19.8181 29.2529 19.3021 29.4434 18.6186 29.4434C17.935 29.4434 17.4174 29.2529 17.0658 28.8721C16.7175 28.4912 16.5434 28.0176 16.5434 27.4512V27.29ZM23.9703 25.4199H26.5973V30H27.4322V24.7412H23.2281L23.1012 27.6221C23.0751 28.2438 23.0149 28.6898 22.9205 28.96C22.8294 29.2301 22.6552 29.3652 22.398 29.3652C22.3102 29.3652 22.2353 29.3604 22.1734 29.3506C22.1148 29.3376 22.0546 29.3197 21.9928 29.2969V30.0244C22.0579 30.057 22.1311 30.0798 22.2125 30.0928C22.2971 30.109 22.3948 30.1172 22.5055 30.1172C22.9872 30.1172 23.3242 29.9268 23.5162 29.5459C23.7115 29.165 23.8287 28.5563 23.8678 27.7197L23.9703 25.4199ZM28.5066 28.4863C28.5066 29.0104 28.7003 29.4108 29.0877 29.6875C29.4783 29.9609 29.9861 30.0977 30.6111 30.0977C31.1873 30.0977 31.6626 30.0114 32.0369 29.8389C32.4113 29.6631 32.6766 29.4629 32.8328 29.2383C32.8458 29.3783 32.8751 29.5182 32.9207 29.6582C32.9663 29.7982 33.0184 29.9121 33.077 30H33.8729V29.9219C33.8012 29.7786 33.7459 29.6143 33.7068 29.4287C33.6678 29.2399 33.6482 29.0397 33.6482 28.8281V26.3623C33.6482 25.7829 33.4448 25.3434 33.0379 25.0439C32.631 24.7445 32.0548 24.5947 31.3094 24.5947C30.5509 24.5947 29.9568 24.7461 29.5271 25.0488C29.0975 25.3516 28.8826 25.7259 28.8826 26.1719V26.1963H29.7176V26.1719C29.7176 25.918 29.8396 25.7048 30.0838 25.5322C30.3312 25.3564 30.7299 25.2686 31.2801 25.2686C31.8335 25.2686 32.2273 25.3662 32.4617 25.5615C32.6961 25.7568 32.8133 26.0238 32.8133 26.3623V26.8018H31.158C30.3507 26.8018 29.7062 26.9482 29.2244 27.2412C28.7459 27.5342 28.5066 27.9492 28.5066 28.4863ZM29.3416 28.4521C29.3416 28.1266 29.506 27.8743 29.8348 27.6953C30.1668 27.513 30.6486 27.4219 31.2801 27.4219H32.8133V28.2031C32.8133 28.4993 32.6115 28.7777 32.2078 29.0381C31.8042 29.2952 31.3452 29.4238 30.8309 29.4238C30.323 29.4238 29.9471 29.3408 29.7029 29.1748C29.462 29.0055 29.3416 28.7646 29.3416 28.4521ZM42.0861 31.3184H42.8625V29.3213H36.5783V31.3184H37.3596V30H42.0861V31.3184ZM38.4875 25.4199H41.1682V30H42.0031V24.7412H37.7551L37.6281 27.1094C37.5858 27.8385 37.5305 28.3577 37.4621 28.667C37.3937 28.9762 37.2798 29.2318 37.1203 29.4336H37.9895C38.1001 29.2318 38.1848 28.9779 38.2434 28.6719C38.3052 28.3626 38.3557 27.8662 38.3947 27.1826L38.4875 25.4199ZM43.6732 30H44.5131L47.4379 26.2744C47.5128 26.18 47.5795 26.0872 47.6381 25.9961C47.6967 25.9017 47.7488 25.8057 47.7943 25.708H47.8334C47.8269 25.8122 47.8204 25.9261 47.8139 26.0498C47.8106 26.1702 47.809 26.2809 47.809 26.3818V30H48.6439V24.7412H47.7992L44.8744 28.4668C44.7995 28.5612 44.7328 28.6556 44.6742 28.75C44.6189 28.8411 44.5668 28.9355 44.518 29.0332H44.4838C44.487 28.929 44.4903 28.8167 44.4936 28.6963C44.5001 28.5758 44.5033 28.4635 44.5033 28.3594V24.7412H43.6732V30ZM52.2232 30.1465C53.0175 30.1465 53.6441 30 54.1031 29.707C54.5654 29.4141 54.7965 29.0088 54.7965 28.4912C54.7965 28.1559 54.6939 27.8857 54.4889 27.6807C54.287 27.4756 54.025 27.3486 53.7027 27.2998V27.2803C53.9827 27.2054 54.2057 27.0703 54.3717 26.875C54.541 26.6764 54.6256 26.4307 54.6256 26.1377C54.6256 25.6429 54.4221 25.262 54.0152 24.9951C53.6083 24.7282 53.0322 24.5947 52.2867 24.5947C51.4599 24.5947 50.8268 24.7689 50.3873 25.1172C49.9511 25.4655 49.733 25.8887 49.733 26.3867V26.4111H50.5436V26.3867C50.5436 26.0872 50.6835 25.8317 50.9635 25.6201C51.2434 25.4053 51.6813 25.2979 52.277 25.2979C52.8108 25.2979 53.1933 25.376 53.4244 25.5322C53.6588 25.6852 53.776 25.8984 53.776 26.1719C53.776 26.4323 53.6865 26.6341 53.5074 26.7773C53.3284 26.9206 53.037 26.9922 52.6334 26.9922H51.2613V27.6709H52.6871C53.1363 27.6709 53.4586 27.7441 53.6539 27.8906C53.8492 28.0339 53.9469 28.2357 53.9469 28.4961C53.9469 28.7858 53.8102 29.0169 53.5367 29.1895C53.2633 29.3587 52.8271 29.4434 52.2281 29.4434C51.5836 29.4434 51.1214 29.3359 50.8414 29.1211C50.5615 28.903 50.4215 28.6475 50.4215 28.3545V28.3301H49.6109V28.3545C49.6109 28.859 49.829 29.2839 50.2652 29.6289C50.7014 29.974 51.3541 30.1465 52.2232 30.1465ZM55.573 28.4863C55.573 29.0104 55.7667 29.4108 56.1541 29.6875C56.5447 29.9609 57.0525 30.0977 57.6775 30.0977C58.2537 30.0977 58.729 30.0114 59.1033 29.8389C59.4777 29.6631 59.743 29.4629 59.8992 29.2383C59.9122 29.3783 59.9415 29.5182 59.9871 29.6582C60.0327 29.7982 60.0848 29.9121 60.1434 30H60.9393V29.9219C60.8676 29.7786 60.8123 29.6143 60.7732 29.4287C60.7342 29.2399 60.7146 29.0397 60.7146 28.8281V26.3623C60.7146 25.7829 60.5112 25.3434 60.1043 25.0439C59.6974 24.7445 59.1212 24.5947 58.3758 24.5947C57.6173 24.5947 57.0232 24.7461 56.5936 25.0488C56.1639 25.3516 55.949 25.7259 55.949 26.1719V26.1963H56.784V26.1719C56.784 25.918 56.9061 25.7048 57.1502 25.5322C57.3976 25.3564 57.7964 25.2686 58.3465 25.2686C58.8999 25.2686 59.2938 25.3662 59.5281 25.5615C59.7625 25.7568 59.8797 26.0238 59.8797 26.3623V26.8018H58.2244C57.4171 26.8018 56.7726 26.9482 56.2908 27.2412C55.8123 27.5342 55.573 27.9492 55.573 28.4863ZM56.408 28.4521C56.408 28.1266 56.5724 27.8743 56.9012 27.6953C57.2332 27.513 57.715 27.4219 58.3465 27.4219H59.8797V28.2031C59.8797 28.4993 59.6779 28.7777 59.2742 29.0381C58.8706 29.2952 58.4116 29.4238 57.8973 29.4238C57.3895 29.4238 57.0135 29.3408 56.7693 29.1748C56.5285 29.0055 56.408 28.7646 56.408 28.4521ZM62.1455 30H62.9854L65.9102 26.2744C65.985 26.18 66.0518 26.0872 66.1104 25.9961C66.1689 25.9017 66.221 25.8057 66.2666 25.708H66.3057C66.2992 25.8122 66.2926 25.9261 66.2861 26.0498C66.2829 26.1702 66.2812 26.2809 66.2812 26.3818V30H67.1162V24.7412H66.2715L63.3467 28.4668C63.2718 28.5612 63.2051 28.6556 63.1465 28.75C63.0911 28.8411 63.0391 28.9355 62.9902 29.0332H62.9561C62.9593 28.929 62.9626 28.8167 62.9658 28.6963C62.9723 28.5758 62.9756 28.4635 62.9756 28.3594V24.7412H62.1455V30ZM64.6113 23.2178C64.2988 23.2178 64.04 23.1396 63.835 22.9834C63.6299 22.8239 63.4622 22.5863 63.332 22.2705L62.6924 22.6221C62.8519 23.0029 63.0977 23.3024 63.4297 23.5205C63.7617 23.7386 64.1556 23.8477 64.6113 23.8477C65.0671 23.8477 65.4609 23.7386 65.793 23.5205C66.125 23.3024 66.3708 23.0029 66.5303 22.6221L65.8906 22.2705C65.7604 22.5895 65.5928 22.8271 65.3877 22.9834C65.1826 23.1396 64.9238 23.2178 64.6113 23.2178ZM68.5471 24.7412V30H69.3772V27.6709H72.59V30H73.4201V24.7412H72.59V26.9922H69.3772V24.7412H68.5471ZM74.5043 28.4863C74.5043 29.0104 74.698 29.4108 75.0854 29.6875C75.476 29.9609 75.9838 30.0977 76.6088 30.0977C77.185 30.0977 77.6602 30.0114 78.0346 29.8389C78.4089 29.6631 78.6742 29.4629 78.8305 29.2383C78.8435 29.3783 78.8728 29.5182 78.9184 29.6582C78.9639 29.7982 79.016 29.9121 79.0746 30H79.8705V29.9219C79.7989 29.7786 79.7436 29.6143 79.7045 29.4287C79.6654 29.2399 79.6459 29.0397 79.6459 28.8281V26.3623C79.6459 25.7829 79.4424 25.3434 79.0355 25.0439C78.6286 24.7445 78.0525 24.5947 77.307 24.5947C76.5486 24.5947 75.9545 24.7461 75.5248 25.0488C75.0951 25.3516 74.8803 25.7259 74.8803 26.1719V26.1963H75.7152V26.1719C75.7152 25.918 75.8373 25.7048 76.0814 25.5322C76.3288 25.3564 76.7276 25.2686 77.2777 25.2686C77.8311 25.2686 78.225 25.3662 78.4594 25.5615C78.6937 25.7568 78.8109 26.0238 78.8109 26.3623V26.8018H77.1557C76.3484 26.8018 75.7038 26.9482 75.2221 27.2412C74.7436 27.5342 74.5043 27.9492 74.5043 28.4863ZM75.3393 28.4521C75.3393 28.1266 75.5036 27.8743 75.8324 27.6953C76.1645 27.513 76.6462 27.4219 77.2777 27.4219H78.8109V28.2031C78.8109 28.4993 78.6091 28.7777 78.2055 29.0381C77.8018 29.2952 77.3428 29.4238 76.8285 29.4238C76.3207 29.4238 75.9447 29.3408 75.7006 29.1748C75.4597 29.0055 75.3393 28.7646 75.3393 28.4521Z" fill="white"/>
<path d="M100.07 1.17969H101.726V5H102.25V1.17969H103.902V0.734375H100.07V1.17969ZM104.45 5H104.937V1.69238C104.937 1.63379 104.933 1.56836 104.925 1.49609C104.919 1.42188 104.912 1.35547 104.904 1.29688H104.937C104.95 1.35547 104.972 1.4209 105.001 1.49316C105.03 1.56543 105.059 1.63184 105.086 1.69238L106.607 5H107.119L108.634 1.69238C108.659 1.63379 108.687 1.56836 108.716 1.49609C108.745 1.42188 108.77 1.35547 108.789 1.29688H108.818C108.811 1.35547 108.805 1.42188 108.801 1.49609C108.799 1.56836 108.798 1.63379 108.798 1.69238V5H109.311V0.734375H108.564L107.049 4.02441C107.022 4.08301 106.993 4.14941 106.964 4.22363C106.937 4.2959 106.914 4.36426 106.897 4.42871H106.859C106.841 4.37207 106.816 4.30566 106.782 4.22949C106.749 4.15137 106.719 4.08301 106.692 4.02441L105.156 0.734375H104.45V5Z" fill="white"/>
<path d="M111.483 28.0371C111.483 28.6914 111.752 29.2074 112.289 29.585C112.826 29.9593 113.537 30.1465 114.423 30.1465C115.312 30.1465 116.015 29.9577 116.532 29.5801C117.05 29.2025 117.309 28.7191 117.309 28.1299C117.309 27.5537 117.113 27.1077 116.723 26.792C116.332 26.4762 115.661 26.2093 114.711 25.9912C113.829 25.7926 113.241 25.599 112.948 25.4102C112.655 25.2214 112.509 24.9609 112.509 24.6289C112.509 24.2936 112.66 24.0202 112.963 23.8086C113.266 23.5938 113.734 23.4863 114.369 23.4863C115.007 23.4863 115.487 23.6117 115.81 23.8623C116.132 24.1097 116.293 24.4303 116.293 24.8242V24.8828H117.147V24.8242C117.147 24.2383 116.895 23.7451 116.391 23.3447C115.889 22.9443 115.215 22.7441 114.369 22.7441C113.52 22.7441 112.854 22.9297 112.372 23.3008C111.894 23.6719 111.654 24.1341 111.654 24.6875C111.654 25.2376 111.828 25.6608 112.177 25.957C112.528 26.2533 113.181 26.5104 114.135 26.7285C115.079 26.9434 115.702 27.1501 116.005 27.3486C116.308 27.5472 116.459 27.8141 116.459 28.1494C116.459 28.514 116.285 28.8151 115.937 29.0527C115.588 29.2871 115.084 29.4043 114.423 29.4043C113.765 29.4043 113.254 29.2887 112.89 29.0576C112.528 28.8232 112.348 28.4831 112.348 28.0371V27.9785H111.483V28.0371ZM118.193 26.5723C118.193 27.7246 118.512 28.6084 119.15 29.2236C119.791 29.8389 120.597 30.1465 121.567 30.1465C122.527 30.1465 123.264 29.9235 123.779 29.4775C124.293 29.0283 124.583 28.4505 124.648 27.7441L124.653 27.6953H123.788L123.783 27.7441C123.741 28.1999 123.546 28.5905 123.197 28.916C122.852 29.2415 122.309 29.4043 121.567 29.4043C120.834 29.4043 120.234 29.1618 119.765 28.6768C119.296 28.1917 119.062 27.4902 119.062 26.5723V26.3184C119.062 25.4134 119.294 24.7152 119.76 24.2236C120.225 23.7321 120.828 23.4863 121.567 23.4863C122.286 23.4863 122.825 23.6442 123.183 23.96C123.541 24.2757 123.741 24.6712 123.783 25.1465L123.788 25.1953H124.653L124.648 25.1465C124.583 24.4238 124.29 23.8428 123.769 23.4033C123.248 22.9639 122.514 22.7441 121.567 22.7441C120.597 22.7441 119.791 23.055 119.15 23.6768C118.512 24.2985 118.193 25.179 118.193 26.3184V26.5723ZM125.8 30H126.66V26.6943H131.152V30H132.011V22.8906H131.152V25.9717H126.66V22.8906H125.8V30ZM133.379 26.5723C133.379 27.7148 133.702 28.597 134.35 29.2188C135.001 29.8372 135.835 30.1465 136.85 30.1465C137.866 30.1465 138.699 29.8372 139.35 29.2188C140.001 28.597 140.327 27.7148 140.327 26.5723V26.3184C140.327 25.1758 140.001 24.2952 139.35 23.6768C138.699 23.055 137.866 22.7441 136.85 22.7441C135.831 22.7441 134.998 23.055 134.35 23.6768C133.702 24.2952 133.379 25.1758 133.379 26.3184V26.5723ZM134.248 26.5723V26.3184C134.248 25.4069 134.485 24.707 134.961 24.2188C135.439 23.7305 136.069 23.4863 136.85 23.4863C137.635 23.4863 138.265 23.7305 138.74 24.2188C139.215 24.707 139.453 25.4069 139.453 26.3184V26.5723C139.453 27.4837 139.215 28.1836 138.74 28.6719C138.265 29.1602 137.636 29.4043 136.855 29.4043C136.071 29.4043 135.439 29.1602 134.961 28.6719C134.485 28.1836 134.248 27.4837 134.248 26.5723ZM141.382 26.5723C141.382 27.7148 141.706 28.597 142.353 29.2188C143.004 29.8372 143.838 30.1465 144.853 30.1465C145.869 30.1465 146.702 29.8372 147.353 29.2188C148.004 28.597 148.33 27.7148 148.33 26.5723V26.3184C148.33 25.1758 148.004 24.2952 147.353 23.6768C146.702 23.055 145.869 22.7441 144.853 22.7441C143.834 22.7441 143.001 23.055 142.353 23.6768C141.706 24.2952 141.382 25.1758 141.382 26.3184V26.5723ZM142.251 26.5723V26.3184C142.251 25.4069 142.488 24.707 142.964 24.2188C143.442 23.7305 144.072 23.4863 144.853 23.4863C145.638 23.4863 146.268 23.7305 146.743 24.2188C147.218 24.707 147.456 25.4069 147.456 26.3184V26.5723C147.456 27.4837 147.218 28.1836 146.743 28.6719C146.268 29.1602 145.639 29.4043 144.858 29.4043C144.074 29.4043 143.442 29.1602 142.964 28.6719C142.488 28.1836 142.251 27.4837 142.251 26.5723ZM149.702 30H154.585V29.2773H150.562V22.8906H149.702V30Z" fill="white"/>
<line x1="99.8239" y1="29.3152" x2="112.315" y2="8.1761" stroke="white" stroke-opacity="0.5" stroke-linecap="round"/>
</svg>
