<svg width="24" height="24" viewBox="0 0 24 24" fill="none" xmlns="http://www.w3.org/2000/svg">
<g opacity="0.5">
<path fill-rule="evenodd" clip-rule="evenodd" d="M8.24989 5.24991C7.45425 5.24991 6.69118 5.56598 6.12858 6.12858C5.56597 6.6912 5.24989 7.45425 5.24989 8.24991C5.24989 9.04556 5.56597 9.80862 6.12858 10.3712C6.69118 10.9338 7.45425 11.2499 8.24989 11.2499C9.04554 11.2499 9.8086 10.9338 10.3712 10.3712C10.9338 9.80862 11.2499 9.04556 11.2499 8.24991C11.2499 7.45425 10.9338 6.6912 10.3712 6.12858C9.8086 5.56598 9.04554 5.24991 8.24989 5.24991ZM2.99989 8.24991C2.99979 7.37972 3.21598 6.52314 3.62904 5.75723C4.04209 4.99133 4.63905 4.3401 5.36622 3.86213C6.09339 3.38415 6.92797 3.09443 7.79488 3.01902C8.66181 2.9436 9.53388 3.08486 10.3327 3.43007C11.1314 3.77529 11.8319 4.31364 12.371 4.99673C12.9101 5.6798 13.271 6.48617 13.4211 7.3433C13.5713 8.20044 13.5061 9.08147 13.2313 9.90713C12.9565 10.7328 12.4807 11.4772 11.8469 12.0734C13.0422 12.6533 14.08 13.5129 14.8722 14.5794C15.6646 15.6458 16.1879 16.8877 16.3979 18.1994C16.4447 18.4942 16.3724 18.7955 16.1969 19.037C16.0216 19.2785 15.7574 19.4404 15.4627 19.4872C15.1679 19.534 14.8666 19.4617 14.6251 19.2862C14.3836 19.1108 14.2216 18.8467 14.1749 18.5519C13.9479 17.144 13.227 15.8629 12.1413 14.9381C11.0556 14.0134 9.67602 13.5056 8.24989 13.5056C6.82377 13.5056 5.44425 14.0134 4.35853 14.9381C3.27282 15.8629 2.55187 17.144 2.32489 18.5519C2.30166 18.6979 2.24988 18.8378 2.17255 18.9638C2.09521 19.0898 1.99383 19.1993 1.87419 19.286C1.75453 19.3729 1.61896 19.4351 1.47522 19.4695C1.33147 19.504 1.18236 19.5097 1.03639 19.4864C0.890431 19.4632 0.750474 19.4114 0.624516 19.334C0.498558 19.2568 0.389065 19.1554 0.302289 19.0357C0.215512 18.9161 0.153151 18.7805 0.118768 18.6367C0.084385 18.493 0.0786515 18.3439 0.101896 18.1979C0.312397 16.8866 0.835957 15.6455 1.62819 14.5796C2.42043 13.5137 3.45798 12.6545 4.65289 12.0749C4.13019 11.5845 3.71376 10.9919 3.42943 10.334C3.14509 9.67601 2.99889 8.96667 2.99989 8.24991ZM16.4999 5.99991C16.2016 5.99991 15.9154 6.11843 15.7045 6.32942C15.4934 6.54039 15.3749 6.82653 15.3749 7.12491C15.3749 7.42328 15.4934 7.70942 15.7045 7.92041C15.9154 8.13138 16.2016 8.24991 16.4999 8.24991C17.0074 8.24994 17.5 8.42156 17.8978 8.73689C18.2954 9.05222 18.5749 9.49272 18.6905 9.98688C18.8062 10.481 18.7514 10.9998 18.5351 11.4589C18.3188 11.918 17.9537 12.2905 17.4989 12.5159C17.3114 12.6092 17.1536 12.753 17.0434 12.931C16.9331 13.1091 16.8748 13.3145 16.8749 13.5239V14.0519C16.8746 14.3046 16.9594 14.55 17.1155 14.7487C17.2717 14.9473 17.4902 15.0877 17.7359 15.1469C19.5359 15.5804 20.9789 16.9469 21.5189 18.7049C21.5617 18.8467 21.6322 18.9787 21.7261 19.0933C21.8201 19.2077 21.9358 19.3027 22.0666 19.3724C22.1972 19.442 22.3405 19.4852 22.4879 19.4995C22.6354 19.5137 22.7842 19.4986 22.9259 19.4552C23.0675 19.4117 23.1992 19.3408 23.3132 19.2463C23.4274 19.1518 23.5217 19.0357 23.5909 18.9046C23.66 18.7736 23.7026 18.6302 23.7161 18.4826C23.7298 18.3352 23.714 18.1864 23.6699 18.0449C23.3696 17.0708 22.8743 16.168 22.2142 15.3914C21.554 14.6147 20.7428 13.9803 19.8299 13.5269C20.4163 12.8818 20.8028 12.0803 20.9422 11.2197C21.0817 10.3591 20.9681 9.47655 20.6155 8.67929C20.2627 7.88202 19.6859 7.20438 18.9554 6.72872C18.2248 6.25305 17.3717 5.99985 16.4999 5.99991Z" fill="white"/>
</g>
</svg>
