<svg width="176" height="60" viewBox="0 0 176 60" fill="none" xmlns="http://www.w3.org/2000/svg">
<path d="M23.6294 0.289062C27.8026 0.289062 29.1139 3.14084 30.21 5.99218C30.6756 7.20039 41.5148 35.5164 41.8377 36.3659C41.9286 36.6008 41.8691 36.9925 41.4857 37.1317C41.1019 37.2692 35.4696 39.36 35.1587 39.472C34.8474 39.583 34.4968 39.4178 34.3823 39.1225C34.2668 38.8291 31.9319 32.6558 31.6686 31.9658C30.8922 31.9658 16.3846 31.9658 15.6096 31.9658C15.3449 32.6558 12.986 38.8414 12.8775 39.1225C12.7703 39.4067 12.4313 39.5958 12.1024 39.472C11.7722 39.3473 6.11448 37.256 5.78007 37.1317C5.45674 37.0137 5.30755 36.662 5.42349 36.3659C5.82071 35.304 16.495 7.4445 17.0415 5.99218C18.0983 3.18622 19.4576 0.289062 23.6294 0.289062ZM4.56437 50.9513C4.22765 50.9513 3.95605 51.2188 3.95605 51.5471V58.1628C3.95605 58.4932 4.22811 58.7567 4.56437 58.7567H42.6949C43.0289 58.7567 43.2982 58.4932 43.2982 58.1628V51.5471C43.2982 51.2192 43.0289 50.9513 42.6949 50.9513H4.56437ZM23.5975 9.53488L18.1662 25.0892H29.1139L23.6641 9.53488H23.5975ZM101.927 35.0365C101.128 35.2974 100.601 35.3608 99.9707 35.3608C98.6728 35.3608 97.9504 34.8704 97.9504 33.5992C97.9504 32.2764 98.8687 31.8305 100.666 31.8305C101.1 31.8305 101.537 31.8917 101.738 31.9587V32.9052C101.738 33.9292 101.794 34.6003 101.927 35.0365ZM106.541 36.5567C105.584 35.1661 105.334 34.3474 105.334 32.5945V29.0435C105.334 27.1258 105.101 26.4371 104.568 25.7369C103.832 24.7486 102.603 24.3203 100.338 24.3203C98.7393 24.3203 97.1837 24.4865 95.6802 24.8504L96.2178 27.3796C97.2382 27.2444 98.3042 27.1258 99.0566 27.1258C101.461 27.1258 101.739 27.4594 101.739 29.1783V29.8212C101.204 29.685 100.602 29.5868 99.9042 29.5868C96.2867 29.5868 94.3768 31.2744 94.3768 34.0676C94.3768 36.6889 96.4151 38.1174 98.9038 38.1174C99.8359 38.1174 100.804 37.954 101.572 37.6579C102.035 37.4627 102.236 37.3507 102.84 36.9771C103.197 37.4816 103.925 37.9936 104.22 38.0857L106.541 36.5567ZM140.229 35.0365C139.428 35.2974 138.905 35.3608 138.272 35.3608C136.972 35.3608 136.238 34.8704 136.238 33.5992C136.238 32.2764 137.167 31.8305 138.969 31.8305C139.403 31.8305 139.837 31.8917 140.035 31.9587V32.9052C140.035 33.9292 140.094 34.6003 140.229 35.0365ZM144.844 36.5567C143.881 35.1661 143.634 34.3474 143.634 32.5945V29.0435C143.634 27.1258 143.401 26.4371 142.867 25.7369C142.132 24.7486 140.903 24.3203 138.637 24.3203C137.036 24.3203 135.467 24.4865 133.967 24.8504L134.502 27.3796C135.522 27.2444 136.592 27.1258 137.36 27.1258C139.757 27.1258 140.035 27.4594 140.035 29.1783V29.8212C139.504 29.685 138.905 29.5868 138.202 29.5868C134.573 29.5868 132.661 31.2744 132.661 34.0676C132.661 36.6889 134.702 38.1174 137.204 38.1174C138.135 38.1174 139.104 37.954 139.87 37.6579C140.337 37.4627 140.535 37.3507 141.135 36.9771C141.497 37.4816 142.226 37.9936 142.52 38.0857L144.844 36.5567ZM173.013 37.8218C173.013 37.8218 171.032 33.7882 170.549 32.8739C170.001 31.8384 169.497 31.1232 168.379 30.8721V30.81C169.127 30.6747 169.724 30.2411 170.365 28.9227C170.991 27.6357 171.172 27.3585 171.533 27.0549C171.891 26.7465 172.378 26.8614 172.378 26.8614L172.564 24.4794C172.043 24.4142 171.467 24.4124 170.873 24.445C169.89 24.501 169.38 24.7676 168.896 25.2351C168.521 25.5916 168.262 26.1234 167.945 26.7324C167.605 27.3986 167.337 27.9362 166.99 28.6156C166.644 29.3087 166.472 29.6202 165.532 29.6202H164.923V19.0909H161.293V37.8213H164.923V32.4368L165.415 32.4266C166.456 32.4266 166.636 32.6721 167.184 33.7168C167.829 34.9647 169.057 37.8218 169.057 37.8218H173.013ZM73.072 37.8218H77.2535L70.9325 19.4068C70.2692 19.1931 69.4415 19.0596 68.5625 19.0596C67.6027 19.0596 67.2619 19.1817 66.5094 19.4068L59.8235 37.8218H63.8323C63.8323 37.8218 64.3718 36.2073 65.0129 34.202H71.9431C72.5644 36.2055 73.072 37.8218 73.072 37.8218ZM66.0314 31.114C66.0314 31.114 67.1847 27.4202 67.363 26.8421C67.8304 25.3549 68.5274 22.9887 68.5274 22.9887H68.6438C68.6438 22.9887 69.2868 25.4413 69.7103 26.82C69.8711 27.3647 70.9773 31.114 70.9773 31.114H66.0314ZM111.665 29.0113C110.385 29.0113 109.347 30.0049 109.347 31.2259C109.347 32.4522 110.384 33.4384 111.665 33.4384C112.943 33.4384 113.98 32.4522 113.98 31.2259C113.98 30.0049 112.943 29.0113 111.665 29.0113ZM82.2179 19.0909H78.5874V37.8213H82.2179V19.0909ZM152.274 27.2964C154.278 27.34 154.524 27.7326 154.524 29.3409V37.8218H158.121V29.043C158.121 27.1254 157.888 26.4367 157.355 25.7365C156.619 24.7482 155.164 24.3199 152.71 24.3199C150.283 24.3199 148.739 24.5662 146.746 25.1315V37.8213H150.381V27.4594C151.339 27.3272 151.503 27.2964 152.274 27.2964ZM91.1966 18.7587C88.9315 18.7587 87.7001 19.1843 86.9652 20.1731C86.4322 20.8728 86.1985 21.58 86.1985 23.499V25.1315H84.3943V27.9313H86.1985V37.8213H89.7948L89.7865 27.9313H93.3791V25.1315H89.7865L89.7948 23.6303C89.7948 21.9136 90.0738 21.5805 92.4775 21.5805C92.7356 21.5805 93.0276 21.5937 93.3407 21.6166L93.9084 18.9274C93.0183 18.8128 92.1107 18.7587 91.1966 18.7587ZM117.997 18.9314C119.233 18.8631 121.991 18.7648 123.728 18.7648C124.037 18.7648 124.361 18.7675 124.693 18.7816C128.105 18.7816 130.055 21.1504 130.055 23.9273C130.055 25.8158 129.149 27.0694 127.024 27.8181C129.528 28.3459 130.839 30.2103 130.839 32.4866C130.839 34.1588 130.339 35.4851 129.428 36.3919C128.255 37.4997 126.475 38.1174 124.107 38.1166C121.991 38.1166 119.346 38.0562 117.997 37.9795L117.997 18.9314ZM123.729 22.0026C123.12 22.0026 122.384 22.0118 121.644 22.0374C121.644 22.3432 121.644 26.23 121.644 26.535C121.942 26.535 123.732 26.535 123.732 26.535C124.55 26.535 125.217 26.3155 125.672 25.892C126.1 25.4959 126.322 24.9315 126.322 24.2617C126.322 22.8261 125.508 22.0092 123.992 22.0026C123.867 22.0026 123.812 22.0026 123.729 22.0026ZM123.797 34.8902C123.853 34.8902 123.91 34.8902 123.965 34.8902C125.842 34.8902 127.007 33.9305 127.019 31.9992C126.997 31.3022 126.721 30.6646 126.226 30.2023C125.676 29.6789 124.903 29.4052 123.997 29.4052C123.997 29.4052 121.949 29.4052 121.644 29.4052C121.644 29.715 121.644 34.5576 121.644 34.8682C122.307 34.8819 123.037 34.8871 123.797 34.8902Z" fill="#EE3424"/>
</svg>
