<svg width="124" height="44" viewBox="0 0 124 44" fill="none" xmlns="http://www.w3.org/2000/svg">
<g clip-path="url(#clip0_254_1984)">
<path d="M23.797 19.5006V27.3986C23.797 29.4139 24.7774 30.3944 26.7928 30.3944H27.6643C29.6796 30.3944 30.6601 29.4139 30.6601 27.3986V23.5313H35.2899V27.2352C35.2899 32.3008 32.7299 34.9153 27.6098 34.9153H26.6294C21.5637 34.9153 18.9492 32.3553 18.9492 27.8343V8.44336C18.9492 2.77858 21.5093 0.164062 26.6294 0.164062H27.6098C32.6754 0.164062 35.2899 2.72411 35.2899 7.8442V19.4461H23.797V19.5006ZM23.797 14.8707H30.6056V7.68079C30.6056 5.66543 29.6251 4.68499 27.6098 4.68499H26.8472C24.8319 4.68499 23.8514 5.66543 23.8514 7.68079V14.8707H23.797Z" fill="#454859"/>
<path d="M38.4492 0.600033H43.2425V2.77879C44.3863 1.58048 46.3472 0.21875 49.0707 0.21875C53.1559 0.21875 55.1712 2.9422 55.1712 6.91844V28.1614C55.1712 32.1921 53.1559 34.861 49.0707 34.861C46.2928 34.861 44.3863 33.5538 43.2425 32.4099V43.3582H38.4492V0.600033ZM43.2425 28.5971C44.5497 29.741 46.0749 30.3401 47.6545 30.3401C49.3975 30.3401 50.4324 29.5231 50.4324 27.5622V7.5176C50.4324 5.55672 49.452 4.73968 47.6545 4.73968C46.0749 4.73968 44.5497 5.39331 43.2425 6.48269V28.5971Z" fill="#454859"/>
<path d="M58.0576 22.7142C58.0576 18.5201 59.4193 16.8316 63.0688 15.5788L69.4961 13.4V7.68079C69.4961 5.66543 68.5157 4.57605 66.5003 4.57605H65.7377C63.7224 4.57605 62.742 5.66543 62.742 7.68079V12.4741H58.1121V7.84419C58.1121 2.77858 60.6721 0.164062 65.7922 0.164062H66.7182C71.7838 0.164062 74.3983 2.72411 74.3983 7.84419V34.4795H69.605V32.3553C68.2978 33.608 66.5003 34.8608 63.7769 34.8608C59.964 34.8608 58.1666 32.6821 58.1666 28.8692V22.7142H58.0576ZM69.4961 28.7603V17.5942L65.1386 19.2282C63.3956 19.9363 62.7964 20.8078 62.7964 22.7687V27.9433C62.7964 29.5773 63.6135 30.3944 65.1386 30.3944C66.6093 30.3399 67.9165 29.8497 69.4961 28.7603Z" fill="#454859"/>
<path d="M93.5714 34.4798H88.7781V7.19079C88.7781 5.50225 87.9611 4.73968 86.4904 4.73968C85.1832 4.73968 83.767 5.2299 82.0784 6.42822V34.4798H77.2852V0.600033H82.0784V2.77879C83.4401 1.47154 85.2921 0.21875 87.9066 0.21875C90.3577 0.21875 91.9918 1.19919 92.8633 2.99667C94.5518 1.52601 96.5672 0.21875 99.3451 0.21875C103.049 0.21875 104.955 2.50645 104.955 6.21034V34.5342H100.162V7.19079C100.162 5.50225 99.3451 4.73968 97.8744 4.73968C96.5672 4.73968 95.151 5.2299 93.4625 6.42822V34.4798H93.5714Z" fill="#454859"/>
<path d="M12.903 3.70508V9.96902L4.89604 17.5947L12.903 25.1114V31.4843L0.647461 19.9368V15.3615L12.903 3.70508Z" fill="#00B5D1"/>
<path d="M123.311 15.3615V19.9368L111.056 31.4843V25.1114L119.063 17.5947L111.056 9.91455V3.70508L123.311 15.3615Z" fill="#00B5D1"/>
</g>
<defs>
<clipPath id="clip0_254_1984">
<rect width="123.1" height="43.5752" fill="white" transform="translate(0.428711)"/>
</clipPath>
</defs>
</svg>
