<svg width="198" height="30" viewBox="0 0 198 30" fill="none" xmlns="http://www.w3.org/2000/svg">
<path fill-rule="evenodd" clip-rule="evenodd" d="M22.5979 0C7.13214 0 0.729344 6.6923 0.729344 19.8943L0.714844 29.1661L11.7602 29.1733C27.2259 29.1733 33.6288 22.4807 33.6288 9.27528L33.6725 0H22.5979ZM22.5773 7.25725L26.4431 7.27961L26.4337 9.27528C26.4337 16.1914 24.2911 18.2065 23.587 18.8685C21.4398 20.8885 17.4673 21.9137 11.7801 21.916L7.91951 21.8942L7.92442 19.8943C7.92442 12.9809 10.0665 10.9665 10.7709 10.3045C12.9181 8.28469 16.8903 7.2597 22.5773 7.25725ZM177.445 13.0947C177.862 14.1861 177.992 15.323 177.996 16.4807C177.997 16.7057 177.997 16.9305 177.997 17.1553L177.996 17.4443L178.03 17.4462C178.018 17.6894 178.009 17.9328 178.001 18.1764L178.001 18.1816V18.182C177.981 18.7323 177.962 19.2828 177.908 19.8296C177.76 21.3279 177.228 22.6841 176.275 23.8608C175.161 25.2354 173.699 26.0196 171.985 26.3695C170.283 26.7169 168.598 26.6349 166.957 26.0721C165.124 25.4435 163.748 24.2685 162.895 22.5047C162.268 21.2096 162.059 19.8342 162.066 18.4131C162.067 18.2371 162.067 18.0611 162.066 17.8851L162.066 17.621L162.066 17.5469C162.065 16.9319 162.064 16.3169 162.09 15.7033C162.168 13.8885 162.714 12.2341 163.909 10.8364C164.728 9.87825 165.761 9.22532 166.951 8.82353C168.729 8.22342 170.54 8.15339 172.352 8.6053C174.811 9.21917 176.532 10.7069 177.445 13.0947ZM173.579 21.6193C174.032 20.8669 174.208 20.0284 174.245 19.167C174.284 18.2251 174.29 17.2805 174.265 16.3381C174.251 15.7596 174.19 15.176 174.083 14.6073C173.882 13.5489 173.352 12.6815 172.463 12.0459C171.89 11.637 171.245 11.4409 170.557 11.3743C169.662 11.2878 168.788 11.3797 167.983 11.8113C166.651 12.5268 166.042 13.7237 165.872 15.1642C165.81 15.6836 165.795 16.2086 165.781 16.7337V16.7341L165.777 16.8759C165.771 17.0663 165.765 17.2567 165.756 17.4467C165.766 17.4469 165.777 17.4476 165.787 17.4479V17.7864C165.786 18.0349 165.784 18.2834 165.788 18.5318C165.8 19.5079 165.895 20.4671 166.34 21.3605C166.759 22.2035 167.394 22.8154 168.261 23.1818C169.026 23.5051 169.826 23.5685 170.643 23.4769C171.921 23.3336 172.911 22.7262 173.579 21.6193ZM91.2842 12.2768C91.0273 11.3423 90.6016 10.5041 89.8735 9.84722C89.1069 9.15619 88.1846 8.77653 87.1852 8.57847C85.6829 8.28086 84.1689 8.2644 82.6497 8.41283C81.0264 8.57183 79.5251 9.05593 78.2145 10.0588C78.1436 10.1134 78.1084 10.1716 78.0916 10.2466L79.2735 12.7345C79.8569 12.3732 80.4774 12.081 81.1548 11.8943C82.0457 11.649 82.9542 11.5655 83.8748 11.5736C84.5463 11.5795 85.2104 11.6296 85.8577 11.825C86.7853 12.1049 87.4535 12.6698 87.7317 13.6134C87.9663 14.4096 87.9742 15.2363 87.9673 16.0957H87.7299C87.4245 16.0957 87.1188 16.0945 86.8134 16.0932C86.095 16.0903 85.3764 16.0873 84.6582 16.1006C83.9166 16.1144 83.1731 16.1477 82.4349 16.2167C81.4035 16.3127 80.4065 16.5525 79.4754 17.0319C78.3537 17.6099 77.6615 18.5227 77.3373 19.7268C77.1171 20.5439 77.0849 21.3777 77.1528 22.2157C77.2026 22.8336 77.3553 23.4296 77.6275 23.9884C78.2275 25.2201 79.2425 25.9374 80.5383 26.2853C81.7172 26.6019 82.9158 26.6427 84.1218 26.4813C85.4438 26.3045 86.5983 25.7826 87.5105 24.7851C87.613 24.6731 87.7062 24.552 87.799 24.4312L87.7998 24.4303L87.802 24.4274L87.8027 24.4265C87.8449 24.3717 87.887 24.3171 87.93 24.2631L87.95 24.2683L87.9749 24.2742V26.0731H91.6395V25.9187C91.6393 24.9108 91.6396 23.9027 91.6398 22.8947C91.6403 20.3756 91.6408 17.8566 91.637 15.3376C91.6353 14.3055 91.5594 13.2793 91.2842 12.2768ZM87.6618 21.3454C87.2026 22.4218 86.4184 23.1507 85.2735 23.4554C84.3166 23.7098 83.3499 23.7753 82.3794 23.5333C81.2902 23.2618 80.7567 22.5936 80.7192 21.4724C80.7035 21.0069 80.7502 20.548 80.9311 20.1165C81.2072 19.4579 81.7768 19.1859 82.4236 19.0276C83.1043 18.8612 83.7998 18.8364 84.4953 18.8308C85.2853 18.8245 86.0754 18.8255 86.8655 18.8265C87.1788 18.8268 87.4921 18.8272 87.8054 18.8271C87.8343 18.8271 87.8631 18.8296 87.897 18.8327L87.9345 18.8358L87.9634 18.8379C87.9899 19.7042 88.0012 20.55 87.6618 21.3454ZM197.305 15.6744C197.305 15.233 197.297 14.7904 197.263 14.3506C197.166 13.0833 196.886 11.8654 196.208 10.7687C195.601 9.78937 194.755 9.10325 193.666 8.72113C192.822 8.42549 191.947 8.32425 191.061 8.32229C190.335 8.32057 189.617 8.40215 188.922 8.61669C187.647 9.01037 186.623 9.76529 185.812 10.818C185.792 10.8446 185.78 10.8769 185.766 10.9093C185.763 10.9171 185.76 10.9248 185.757 10.9325C185.753 10.9397 185.75 10.9467 185.747 10.9537L185.723 10.9373L185.689 10.9138L185.674 10.9036V8.78059H182.028V26.0828H185.681V23.4212L185.681 21.0417C185.681 19.4554 185.68 17.8691 185.681 16.2829C185.681 15.7321 185.739 15.1901 185.895 14.6578C186.171 13.7133 186.672 12.9277 187.496 12.3749C188.499 11.7017 189.61 11.5037 190.775 11.7681C192.037 12.0544 192.926 12.8074 193.348 14.0574C193.589 14.7704 193.644 15.5103 193.645 16.2545C193.647 18.5709 193.647 20.887 193.647 23.2033V26.0786H197.308V23.4584C197.308 20.8637 197.308 18.2691 197.305 15.6744ZM111.276 14.0701C111.181 12.919 110.885 11.8205 110.282 10.8189C109.548 9.59757 108.467 8.86623 107.095 8.53939C106.228 8.33273 105.347 8.2826 104.463 8.346C103.72 8.39933 102.992 8.54776 102.308 8.85886C101.32 9.30833 100.499 9.96642 99.8424 10.8312C99.8237 10.8557 99.8017 10.8782 99.7712 10.9092L99.7682 10.9122L99.7681 10.9123L99.7428 10.9383L99.7181 10.9639L99.7105 10.972V8.77998H96.0742V26.0733H99.7214L99.721 23.597L99.721 23.4084C99.7206 21.0526 99.7203 18.6967 99.7245 16.341C99.7253 16.0011 99.75 15.658 99.8004 15.3221C99.9287 14.4666 100.227 13.6766 100.81 13.0215C101.633 12.097 102.683 11.6751 103.909 11.6655C105.625 11.6522 107.177 12.6967 107.514 14.524C107.621 15.1056 107.676 15.7048 107.679 16.2963C107.691 18.6576 107.689 21.0188 107.688 23.3802L107.688 23.7857L107.688 23.8213C107.687 24.4854 107.687 25.1495 107.687 25.8136V26.0782H111.355V25.8131C111.355 24.9633 111.355 24.1135 111.355 23.2637V23.2473C111.356 20.9368 111.357 18.6263 111.352 16.3156C111.35 15.5668 111.337 14.8156 111.276 14.0701ZM62.1783 23.1884L62.1711 23.1894C62.1437 23.1932 62.1201 23.1965 62.0968 23.2014C61.2864 23.3741 60.467 23.4228 59.6424 23.3621C58.4712 23.2753 57.8425 22.7225 57.6503 21.5646C57.568 21.0654 57.5265 20.5541 57.5243 20.048C57.515 17.9693 57.5165 15.8905 57.5181 13.8118C57.5186 13.1935 57.5189 12.5752 57.5192 11.957C57.5192 11.9105 57.5223 11.8639 57.5261 11.8107L57.5302 11.7482L57.5317 11.7233H61.8857V8.76798H57.5127V3.60938H53.8623L53.8628 6.4963L53.8629 7.41283C53.8637 11.7919 53.8648 18.4511 53.863 20.4223C53.8618 21.5969 53.9999 22.7449 54.4945 23.8258C55.1227 25.1978 56.1857 26.039 57.6503 26.3702C59.1277 26.7044 60.6005 26.5946 62.0694 26.2945C62.2101 26.2658 62.2486 26.21 62.2477 26.07C62.2432 25.448 62.2434 24.8261 62.2436 24.2043V24.2028L62.2437 24.1571V24.1548C62.2439 23.8895 62.244 23.6245 62.2438 23.3594C62.2438 23.3214 62.2406 23.2832 62.2372 23.2429C62.2355 23.2228 62.2338 23.2021 62.2325 23.1807C62.2125 23.1838 62.1947 23.1862 62.1783 23.1884ZM147.615 23.3149C146.843 23.1955 146.277 22.7876 146.07 22.0146C145.946 21.547 145.857 21.0546 145.854 20.5729C145.837 18.4951 145.836 16.4172 145.835 14.3392L145.834 13.9271C145.834 13.258 145.834 12.5889 145.833 11.9199C145.833 11.8858 145.837 11.8517 145.841 11.814L145.843 11.8004L145.846 11.7747L145.85 11.7299H150.185V8.76724H145.828V3.61133H142.162V5.06C142.16 8.84985 142.156 18.0344 142.174 20.4061C142.179 21.0976 142.258 21.7947 142.371 22.4779C142.529 23.4383 142.934 24.3047 143.588 25.0347C144.394 25.9324 145.449 26.3255 146.612 26.4907C147.594 26.63 148.574 26.5773 149.552 26.442C149.782 26.4102 150.012 26.3648 150.238 26.3201L150.238 26.32L150.26 26.3156C150.354 26.2971 150.446 26.2787 150.539 26.2616V23.1775L150.477 23.188L150.465 23.1899L150.465 23.19L150.429 23.1963C150.408 23.1999 150.387 23.2036 150.367 23.2076C149.456 23.3884 148.538 23.4577 147.615 23.3149ZM69.7338 11.3542V8.78596H66.0938V26.079H69.7346L69.7342 24.1642L69.7342 23.9865C69.7338 22.6872 69.7335 21.3879 69.7355 20.0887C69.736 19.802 69.7345 19.5154 69.7329 19.2287V19.2284V19.2281V19.2278V19.2276V19.2273V19.227V19.2267V19.2265L69.7328 19.2202V19.2198C69.7286 18.418 69.7243 17.6163 69.7639 16.8168C69.8358 15.3665 70.333 14.0751 71.3983 13.0434C72.1577 12.3084 73.0573 11.8818 74.1214 11.8351C74.3387 11.8256 74.5568 11.828 74.7787 11.8306L74.7791 11.8306H74.7792H74.7793H74.7794H74.7795H74.7796H74.7797H74.7798H74.7798C74.8824 11.8317 74.986 11.8329 75.0905 11.8329V8.33011C72.7278 8.32323 71.051 9.49395 69.7338 11.3542ZM132.92 26.083H136.562V8.78613H132.92V26.083ZM154.396 26.0748H158.033V8.78125H154.396V26.0748ZM44.627 26.0754H48.2595V8.78125H44.627V26.0754ZM129.105 20.0696C128.99 19.0267 128.598 18.1074 127.849 17.3569C127.143 16.649 126.264 16.2466 125.299 16.0972C124.392 15.9568 123.478 15.8612 122.564 15.7656C122.195 15.727 121.825 15.6883 121.457 15.6469L121.399 15.6403C120.807 15.5739 120.22 15.5079 119.665 15.2522C118.401 14.6694 118.431 13.3548 118.918 12.5763C119.298 11.9683 119.921 11.711 120.585 11.5557C121.615 11.3151 122.658 11.3313 123.696 11.4812C124.841 11.6464 125.95 11.9322 127.005 12.3795L128.308 9.63596L128.314 9.62441C128.293 9.5932 128.268 9.56641 128.242 9.55487C128.157 9.5175 128.073 9.4795 127.989 9.44148L127.984 9.43913C127.667 9.29619 127.351 9.15322 127.023 9.04323C125.279 8.45837 123.478 8.24236 121.645 8.30551C120.118 8.35811 118.658 8.6761 117.367 9.5443C116.486 10.1365 115.81 10.9079 115.438 11.9172C115.059 12.9424 115.079 13.9925 115.293 15.0422C115.519 16.1513 116.103 17.036 117.035 17.6881C117.644 18.1146 118.324 18.3868 119.049 18.4922C120.045 18.6371 121.047 18.7424 122.049 18.8475L122.534 18.8987C123.134 18.9622 123.729 19.0319 124.296 19.2571C125.001 19.5364 125.477 20.0053 125.587 20.7816C125.694 21.5434 125.542 22.226 124.919 22.7335C124.515 23.0616 124.024 23.2125 123.527 23.3238C122.069 23.6504 120.612 23.5518 119.168 23.2437C118.208 23.0388 117.284 22.7217 116.386 22.3352L116.383 22.3441L115.408 25.0819C115.419 25.143 115.478 25.219 115.534 25.2491C116.281 25.6563 117.097 25.8709 117.917 26.0652C119.842 26.5219 121.779 26.6959 123.746 26.3341C125.189 26.0688 126.515 25.5644 127.6 24.5441C128.095 24.0787 128.501 23.5376 128.77 22.9067C129.157 21.9948 129.213 21.0401 129.105 20.0696ZM44.5293 5.48521H48.3261V1.68555H44.5293V5.48521ZM132.827 5.48059H136.628V1.67773H132.827V5.48059ZM154.305 5.48397H158.098V1.6875H154.305V5.48397Z" fill="url(#paint0_linear_254_2026)"/>
<defs>
<linearGradient id="paint0_linear_254_2026" x1="9.53613" y1="29.1732" x2="197.703" y2="29.1732" gradientUnits="userSpaceOnUse">
<stop stop-color="#F505D1"/>
<stop offset="0.560696" stop-color="#7144EA"/>
<stop offset="1" stop-color="#0875FD"/>
</linearGradient>
</defs>
</svg>
