<svg width="169" height="30" viewBox="0 0 169 30" fill="none" xmlns="http://www.w3.org/2000/svg">
<path fill-rule="evenodd" clip-rule="evenodd" d="M12.942 0.0325236C11.8913 0.161391 11.2568 0.623614 10.985 1.45811L10.8951 1.73413L10.8942 3.28398C10.8928 5.4747 10.4321 5.20211 14.1357 5.20211C17.8703 5.20211 17.3783 5.59562 17.3783 2.6088C17.3783 0.105229 17.3894 0.220163 17.1332 0.0768708C17.0136 0.0100278 13.4342 -0.0278438 12.942 0.0325236ZM21.2105 0.0297615C20.8143 0.11999 20.8306 0.00969016 20.8306 2.6088C20.8306 5.61361 20.1112 5.19815 25.3476 5.21746C30.0633 5.23486 29.6825 5.21252 29.8302 5.48032L29.8968 5.60108L29.9129 17.4014C29.9306 30.3101 29.9145 29.282 30.1011 29.4426C30.2643 29.5831 30.2557 29.5827 33.1394 29.5827C36.023 29.5827 36.0144 29.5831 36.1776 29.4426C36.3642 29.282 36.3481 30.3101 36.3658 17.4014L36.3819 5.60108L36.4485 5.48032C36.5963 5.21233 36.2068 5.23486 40.9957 5.21746C46.2207 5.19849 45.5776 5.39021 45.5765 3.85175C45.5749 1.63691 44.8796 0.574725 43.1102 0.0842978L42.867 0.0168716L32.0908 0.0114702C26.1638 0.00849326 21.2677 0.0167182 21.2105 0.0297615ZM89.6751 0.0289942C89.5189 0.0656995 89.4246 0.13601 89.3565 0.266382C89.2966 0.381193 89.2952 0.699602 89.2952 14.7928V29.2017L89.3629 29.3245C89.5078 29.5873 89.2976 29.57 92.3442 29.57C95.3908 29.57 95.1806 29.5873 95.3255 29.3245L95.3932 29.2017L95.4114 23.2786C95.4304 17.1204 95.4358 16.8782 95.5723 16.0388C95.9908 13.4655 97.4483 11.806 99.6198 11.4307C102.797 10.8816 105.236 12.9144 105.57 16.3886C105.589 16.5828 105.613 16.8313 105.623 16.9411C105.634 17.0508 105.652 19.8543 105.664 23.1712L105.685 29.2017L105.753 29.3245C105.897 29.586 105.705 29.5689 108.615 29.5786C111.642 29.5887 111.584 29.5958 111.699 29.2003C111.747 29.0368 111.75 16.3344 111.702 15.6521C111.582 13.9296 111.443 13.1325 111.082 12.1074C109.8 8.46069 105.699 5.856 101.754 6.18242C99.311 6.38454 97.5726 7.15741 96.2426 8.63262C95.396 9.57173 95.4152 9.63996 95.4119 5.6895C95.4097 3.08637 95.4018 2.57596 95.3602 2.34941C95.1675 1.29815 94.2705 0.386104 93.1347 0.0864767C92.8624 0.0146927 89.9425 -0.0338284 89.6751 0.0289942ZM125.98 0.0354084C124.485 0.21737 123.749 0.882516 123.107 2.63243C120.11 10.7927 117.035 18.9294 113.977 27.0688C113.227 29.0631 113.215 29.1045 113.294 29.2857C113.398 29.5228 113.194 29.5086 116.526 29.5086H119.495L119.64 29.4314C119.845 29.3219 119.94 29.1213 120.266 28.1123C120.636 26.9684 121.011 25.8262 121.382 24.6829C121.706 23.684 121.784 23.5593 122.126 23.4789C122.429 23.408 133.57 23.4514 133.722 23.5241C133.967 23.641 134.033 23.7679 134.387 24.8071C134.8 26.0157 135.23 27.2194 135.628 28.4325C136.02 29.6303 135.663 29.5241 139.303 29.5238C142.347 29.5236 142.325 29.5248 142.468 29.3634C142.626 29.1851 142.678 29.3433 141.139 25.3348C138.213 17.7129 135.302 10.0856 132.4 2.45535C131.507 0.107837 131.525 0.143622 131.177 0.045352C130.993 -0.00685178 126.399 -0.0156292 125.98 0.0354084ZM159.108 0.0299457C158.952 0.0650551 158.857 0.13555 158.789 0.266382C158.702 0.433919 158.675 25.3838 158.761 26.0867C159.044 28.3816 160.103 29.2934 162.696 29.4754C164.197 29.5807 164.562 29.5912 166.342 29.5807L168.149 29.57L168.291 29.4933C168.577 29.3397 168.567 29.4061 168.578 27.5138C168.593 24.8194 168.458 24.5849 166.841 24.4904C165.717 24.4247 165.242 24.1624 164.991 23.4693L164.923 23.2786L164.912 18.3068C164.9 12.1714 164.788 12.8431 165.839 12.7355C167.241 12.592 168.316 11.6908 168.537 10.4718C168.622 10.0013 168.593 7.24128 168.501 7.07421C168.363 6.825 168.401 6.83068 166.762 6.81334C164.695 6.79149 164.929 7.08857 164.904 4.45021C164.883 2.18571 164.889 2.23122 164.585 1.64206C164.135 0.768686 163.306 0.189687 162.299 0.04526C161.959 -0.00344513 159.312 -0.0161815 159.108 0.0299457ZM50.4652 6.21934C44.1932 6.91747 40.8832 10.9816 40.8832 17.9845C40.8832 25.2112 44.5058 29.5419 50.9008 29.9602C56.3715 30.3181 60.7112 27.8845 62.3231 23.5548C62.7197 22.4896 62.8082 22.5271 59.8987 22.5268C56.7977 22.5266 56.9148 22.4961 55.7566 23.6048C53.6069 25.6626 49.876 25.4531 48.3074 23.1865C47.6676 22.2621 47.1659 20.4145 47.428 19.9482C47.5705 19.6947 46.7591 19.7205 55.1436 19.7032C63.0781 19.6868 62.675 19.6953 62.8472 19.5418C63.3726 19.0736 62.9155 14.6526 62.1229 12.537C60.4697 8.12415 55.849 5.62005 50.4652 6.21934ZM74.4441 6.24622C69.0276 6.82599 65.7046 10.4149 65.1812 16.2505C64.3446 25.5777 69.6635 31.0647 78.3415 29.8268C82.2548 29.2686 85.265 26.9806 86.5531 23.5855C86.9671 22.4943 87.0411 22.5267 84.1329 22.5279C81.0629 22.5291 81.153 22.5054 80.0031 23.6161C78.0429 25.5096 74.5678 25.4946 72.8665 23.5855C70.4889 20.9174 70.761 13.8602 73.312 12.0317C75.4294 10.514 78.5461 10.9838 80.0212 13.0429C80.477 13.6792 80.1665 13.6262 83.4393 13.6262C86.8582 13.6262 86.7477 13.6577 86.428 12.7754C85.0554 8.98743 82.2781 6.85769 77.9679 6.28781C77.3106 6.20089 75.1101 6.17493 74.4441 6.24622ZM128.024 6.56386C128.133 6.67702 128.132 6.67272 128.901 8.90027C129.26 9.93836 129.855 11.6578 130.224 12.7212C132.26 18.5916 132.125 18.145 131.922 18.3378C131.758 18.4939 124.168 18.5582 123.875 18.406C123.587 18.2566 123.598 18.1855 124.12 16.6802C124.367 15.9713 124.956 14.2657 125.431 12.89C127.837 5.91274 127.705 6.23529 128.024 6.56386ZM155.485 6.72575C154.45 6.79078 154.139 6.81693 153.707 6.8754C147.38 7.73217 144.099 11.0632 143.596 17.1406C143.552 17.6747 143.547 18.4929 143.555 23.4474L143.564 29.1404L143.631 29.2631C143.776 29.5265 143.553 29.5086 146.709 29.5086C149.866 29.5086 149.642 29.5265 149.787 29.2631L149.855 29.1404L149.874 22.9256C149.893 16.2328 149.885 16.5733 150.053 15.9306C150.643 13.6766 152.109 12.8263 155.501 12.7716C157.288 12.7428 157.08 13.1328 157.091 9.79546C157.102 6.35529 157.239 6.6157 155.485 6.72575ZM2.61277 7.84127C1.74348 8.00811 1.18708 8.51633 0.964876 9.3465C0.853855 9.76134 0.848758 13.5954 0.958972 13.7953C1.10445 14.0593 0.863857 14.0409 4.1661 14.0409C7.95366 14.0409 7.44092 14.5286 7.44092 10.9258C7.44092 7.83244 7.45579 8.01753 7.19577 7.87215C7.05391 7.79281 3.00733 7.76556 2.61277 7.84127ZM11.2158 7.84112C11.0585 7.89458 10.9548 8.00289 10.9103 8.1603C10.8873 8.24132 10.8794 11.5698 10.885 18.7095L10.8932 29.1404L10.9609 29.2631C11.1063 29.5269 10.87 29.5086 14.1357 29.5086C17.4015 29.5086 17.1652 29.5269 17.3106 29.2631L17.3783 29.1404V18.6597V8.17905L17.3106 8.05629C17.1656 7.79324 17.3936 7.81166 14.1841 7.80402C11.7919 7.79834 11.3246 7.80417 11.2158 7.84112ZM52.6979 11.2172C54.7143 11.4706 55.8914 12.5801 56.3398 14.6501C56.4896 15.3416 56.4596 15.5703 56.2016 15.7043C56.0343 15.7912 47.8032 15.7899 47.6193 15.7029C47.3474 15.5743 47.3082 15.2547 47.4773 14.5472C47.9326 12.6439 49.3112 11.4405 51.3202 11.1925C51.5702 11.1616 52.37 11.1759 52.6979 11.2172ZM1.27119 23.4154C0.86902 23.5078 0.891282 23.3296 0.891282 26.455C0.891282 29.9854 0.380023 29.5086 4.1661 29.5086C7.95218 29.5086 7.44092 29.9854 7.44092 26.455C7.44092 23.431 7.4554 23.6079 7.19577 23.4627C7.07991 23.3979 1.53966 23.3537 1.27119 23.4154Z" fill="#0E1029"/>
<path fill-rule="evenodd" clip-rule="evenodd" d="M125.981 0.0360897C124.486 0.218051 123.75 0.883197 123.108 2.63311C120.111 10.7934 117.036 18.9301 113.978 27.0695C113.228 29.0637 113.216 29.1051 113.295 29.2864C113.399 29.5235 113.195 29.5093 116.527 29.5093H119.496L119.641 29.4321C119.846 29.3226 119.942 29.122 120.267 28.1129C120.637 26.9691 121.012 25.8268 121.383 24.6836C121.707 23.6847 121.785 23.5599 122.127 23.4796C122.43 23.4086 133.571 23.4521 133.723 23.5248C133.968 23.6417 134.034 23.7685 134.388 24.8077C134.801 26.0164 135.231 27.2201 135.629 28.4332C136.021 29.631 135.664 29.5247 139.304 29.5245C142.348 29.5243 142.326 29.5254 142.469 29.3641C142.627 29.1858 142.679 29.344 141.14 25.3355C138.214 17.7136 135.303 10.0863 132.401 2.45603C131.508 0.108518 131.526 0.144303 131.178 0.0460333C130.994 -0.00617052 126.4 -0.0149479 125.981 0.0360897ZM159.109 0.0306269C158.953 0.0657364 158.858 0.136231 158.79 0.267063C158.703 0.4346 158.676 25.3845 158.762 26.0874C159.045 28.3822 160.104 29.2941 162.697 29.4761C164.198 29.5813 164.563 29.5919 166.343 29.5814L168.15 29.5707L168.292 29.494C168.578 29.3404 168.568 29.4067 168.579 27.5145C168.594 24.82 168.459 24.5856 166.842 24.4911C165.718 24.4254 165.243 24.1631 164.992 23.47L164.924 23.2792L164.913 18.3075C164.901 12.172 164.789 12.8437 165.84 12.7362C167.243 12.5927 168.317 11.6915 168.538 10.4725C168.623 10.002 168.594 7.24197 168.502 7.07489C168.364 6.82569 168.402 6.83136 166.763 6.81402C164.696 6.79217 164.93 7.08925 164.905 4.45089C164.885 2.18639 164.89 2.2319 164.586 1.64275C164.136 0.769368 163.307 0.190369 162.3 0.0459413C161.96 -0.00276387 159.313 -0.0155003 159.109 0.0306269ZM128.025 6.56454C128.134 6.6777 128.133 6.6734 128.902 8.90095C129.261 9.93904 129.856 11.6585 130.225 12.7219C132.261 18.5923 132.126 18.1457 131.923 18.3385C131.759 18.4946 124.169 18.5589 123.876 18.4067C123.589 18.2572 123.599 18.1862 124.121 16.6809C124.368 15.9719 124.957 14.2663 125.432 12.8907C127.838 5.91342 127.706 6.23598 128.025 6.56454ZM155.486 6.72643C154.451 6.79147 154.14 6.81761 153.708 6.87608C147.381 7.73285 144.1 11.0639 143.597 17.1412C143.553 17.6754 143.548 18.4936 143.556 23.448L143.565 29.1411L143.632 29.2638C143.777 29.5271 143.554 29.5093 146.71 29.5093C149.867 29.5093 149.643 29.5271 149.788 29.2638L149.856 29.1411L149.875 22.9263C149.895 16.2335 149.886 16.574 150.054 15.9313C150.644 13.6773 152.11 12.827 155.502 12.7723C157.289 12.7435 157.081 13.1334 157.092 9.79615C157.103 6.35597 157.24 6.61638 155.486 6.72643Z" fill="#F40000"/>
<path fill-rule="evenodd" clip-rule="evenodd" d="M22.4133 0.0297615C22.0172 0.11999 22.0334 0.00969005 22.0334 2.6088C22.0334 5.61361 21.3141 5.19815 26.5504 5.21746C31.2661 5.23486 30.8854 5.21252 31.033 5.48032L31.0997 5.60108L31.1158 17.4014C31.1334 30.3101 31.1174 29.282 31.3039 29.4426C31.4672 29.5831 31.4585 29.5827 34.3422 29.5827C37.2259 29.5827 37.2173 29.5831 37.3805 29.4426C37.5671 29.282 37.551 30.3101 37.5686 17.4014L37.5848 5.60108L37.6514 5.48032C37.7992 5.21233 37.4096 5.23486 42.1986 5.21746C47.4236 5.19849 46.7805 5.39021 46.7794 3.85175C46.7778 1.63691 46.0824 0.574725 44.3131 0.0842978L44.0699 0.0168716L33.2936 0.0114702C27.3667 0.00849326 22.4706 0.0167182 22.4133 0.0297615ZM90.878 0.0289942C90.7218 0.0656995 90.6274 0.13601 90.5594 0.266382C90.4995 0.381193 90.4981 0.699602 90.4981 14.7928V29.2017L90.5658 29.3245C90.7106 29.5873 90.5005 29.57 93.5471 29.57C96.5936 29.57 96.3835 29.5873 96.5283 29.3245L96.596 29.2017L96.6143 23.2786C96.6333 17.1204 96.6386 16.8782 96.7752 16.0388C97.1936 13.4655 98.6512 11.806 100.823 11.4307C103.999 10.8816 106.439 12.9144 106.773 16.3886C106.792 16.5828 106.816 16.8313 106.826 16.9411C106.837 17.0508 106.855 19.8543 106.867 23.1712L106.888 29.2017L106.956 29.3245C107.1 29.586 106.908 29.5689 109.817 29.5786C112.845 29.5887 112.787 29.5958 112.902 29.2003C112.95 29.0368 112.953 16.3344 112.905 15.6521C112.785 13.9296 112.646 13.1325 112.285 12.1074C111.003 8.46069 106.902 5.856 102.957 6.18242C100.514 6.38454 98.7754 7.15741 97.4455 8.63262C96.5988 9.57173 96.6181 9.63996 96.6147 5.6895C96.6126 3.08637 96.6047 2.57596 96.5631 2.34941C96.3704 1.29815 95.4734 0.386104 94.3375 0.0864767C94.0653 0.0146927 91.1454 -0.0338284 90.878 0.0289942ZM51.6681 6.21934C45.396 6.91747 42.0861 10.9816 42.0861 17.9845C42.0861 25.2112 45.7086 29.5419 52.1037 29.9602C57.5744 30.3181 61.914 27.8845 63.526 23.5548C63.9226 22.4896 64.0111 22.5271 61.1015 22.5268C58.0005 22.5266 58.1176 22.4961 56.9594 23.6048C54.8098 25.6626 51.0789 25.4531 49.5102 23.1865C48.8705 22.2621 48.3688 20.4145 48.6308 19.9482C48.7734 19.6947 47.962 19.7205 56.3464 19.7032C64.281 19.6868 63.8779 19.6953 64.0501 19.5418C64.5755 19.0736 64.1184 14.6526 63.3258 12.537C61.6726 8.12415 57.0519 5.62005 51.6681 6.21934ZM75.647 6.24622C70.2304 6.82599 66.9075 10.4149 66.384 16.2505C65.5474 25.5777 70.8663 31.0647 79.5444 29.8268C83.4576 29.2686 86.4678 26.9806 87.756 23.5855C88.1699 22.4943 88.244 22.5267 85.3358 22.5279C82.2658 22.5291 82.3559 22.5054 81.206 23.6161C79.2457 25.5096 75.7706 25.4946 74.0693 23.5855C71.6917 20.9174 71.9639 13.8602 74.5149 12.0317C76.6323 10.514 79.749 10.9838 81.224 13.0429C81.6799 13.6792 81.3693 13.6262 84.6421 13.6262C88.061 13.6262 87.9506 13.6577 87.6309 12.7754C86.2583 8.98743 83.481 6.85769 79.1708 6.28781C78.5134 6.20089 76.313 6.17493 75.647 6.24622ZM53.9008 11.2172C55.9172 11.4706 57.0943 12.5801 57.5427 14.6501C57.6924 15.3416 57.6624 15.5703 57.4045 15.7043C57.2372 15.7912 49.006 15.7899 48.8222 15.7029C48.5503 15.5743 48.511 15.2547 48.6802 14.5472C49.1355 12.6439 50.5141 11.4405 52.5231 11.1925C52.7731 11.1616 53.5729 11.1759 53.9008 11.2172Z" fill="#0E1029"/>
<path fill-rule="evenodd" clip-rule="evenodd" d="M12.9429 0.032206C11.8923 0.161074 11.2578 0.623297 10.986 1.45779L10.8961 1.73382L10.8951 3.28367C10.8938 5.47438 10.4331 5.20179 14.1367 5.20179C17.8713 5.20179 17.3793 5.5953 17.3793 2.60848C17.3793 0.104911 17.3904 0.219845 17.1341 0.0765531C17.0146 0.00971015 13.4352 -0.0281614 12.9429 0.032206ZM2.61375 7.84096C1.74445 8.00779 1.18806 8.51602 0.965853 9.34618C0.854832 9.76102 0.849734 13.5951 0.959949 13.795C1.10543 14.0589 0.864834 14.0405 4.16708 14.0405C7.95464 14.0405 7.44189 14.5283 7.44189 10.9255C7.44189 7.83212 7.45677 8.01721 7.19675 7.87183C7.05488 7.7925 3.00831 7.76524 2.61375 7.84096ZM11.2168 7.8408C11.0595 7.89427 10.9558 8.00257 10.9113 8.15998C10.8883 8.241 10.8804 11.5695 10.886 18.7092L10.8942 29.14L10.9619 29.2628C11.1073 29.5266 10.871 29.5083 14.1367 29.5083C17.4024 29.5083 17.1662 29.5266 17.3116 29.2628L17.3793 29.14V18.6594V8.17873L17.3116 8.05597C17.1666 7.79293 17.3946 7.81134 14.1851 7.8037C11.7929 7.79802 11.3255 7.80385 11.2168 7.8408ZM1.27217 23.4151C0.869996 23.5075 0.892258 23.3293 0.892258 26.4547C0.892258 29.9851 0.380999 29.5083 4.16708 29.5083C7.95315 29.5083 7.44189 29.9851 7.44189 26.4547C7.44189 23.4307 7.45638 23.6075 7.19675 23.4624C7.08089 23.3976 1.54064 23.3533 1.27217 23.4151Z" fill="#F40000"/>
</svg>
