<svg width="143" height="55" viewBox="0 0 143 55" fill="none" xmlns="http://www.w3.org/2000/svg">
<path d="M14.2508 29.9731L6.10086 48.2771H0.155273L9.10687 28.7036C4.89831 26.5659 2.09262 22.6913 2.09262 15.5434C2.09262 5.52295 8.43889 0.512695 15.9877 0.512695H23.6699V48.2771H18.5262V29.9731H14.2508ZM18.5262 4.85493H15.7871C11.6454 4.85493 7.63719 7.59381 7.63719 15.5434C7.63719 23.2257 11.3114 25.6974 15.7871 25.6974H18.5262V4.85493Z" fill="#FF0000"/>
<path d="M48.4532 14.6081V48.2771H43.3093V33.1796H35.5601V48.2771H30.3496V14.6081H35.5601V28.904H43.3093V14.6081H48.4532ZM75.2412 54.8907H70.565V48.2771H56.1354V54.8907H51.4592V44.0017H53.5302C56.6031 36.8538 56.9371 26.4323 56.9371 17.4807V14.6081H72.5692V44.0017H75.2412V54.8907ZM67.4253 18.8169H61.6134V19.418C61.6134 26.4991 61.2793 36.8538 58.4736 44.0017H67.4253V18.8169ZM89.6039 48.7446C82.6565 48.7446 78.3811 43.2001 78.3811 32.8458C78.3811 22.0234 81.3873 14.1406 88.5352 14.1406C94.1467 14.1406 97.8209 18.3492 97.8209 29.7727V32.6452H83.792C83.792 40.2607 85.9297 44.2691 90.0714 44.2691C93.0108 44.2691 95.349 42.9331 96.685 41.9977L97.8877 46.0057C95.5145 47.8271 92.5951 48.7923 89.6039 48.7446ZM83.8588 28.3697H92.4765C92.4765 22.6246 91.5411 18.416 88.5352 18.416C85.3285 18.416 84.193 22.3574 83.8588 28.3697ZM108.376 31.5097V48.2771H103.165V14.6081H108.376V30.1734L116.459 14.6081H121.736L113.386 30.4407L122.939 48.2771H117.26L108.376 31.5097ZM123.607 31.4429C123.607 20.8877 127.682 14.1406 135.565 14.1406C138.57 14.1406 140.307 14.9423 141.777 15.8775L141.042 20.8209C139.639 19.6183 137.635 18.4829 135.498 18.4829C131.757 18.4829 129.085 22.6914 129.085 31.1756C129.085 39.5927 131.089 44.4024 135.297 44.4024C137.38 44.4303 139.4 43.6935 140.975 42.3315L142.178 46.2063C140.244 47.9083 137.738 48.8152 135.164 48.7446C127.949 48.7446 123.607 42.9331 123.607 31.4429Z" fill="#0E1029"/>
</svg>
